{
  "source": "C:\\Users\\Peter\\Desktop\\stuff\\MIUN\\quantitative_research\\video_compression\\videos\\BVI-HD\\BVI-HD_CDVL_videos\\ORIG\\BricksLeaves_1920x1080_60fps.mp4",
  "output": "C:\\Users\\Peter\\Desktop\\stuff\\MIUN\\quantitative_research\\video_compression\\compressed_videos\\BVI-HD\\hevc\\1.5\\BricksLeaves_1920x1080_60fps_hevc.mp4",
  "codec": "hevc",
  "ok": "Input #0, mov,mp4,m4a,3gp,3g2,mj2, from 'C:\\Users\\Peter\\Desktop\\stuff\\MIUN\\quantitative_research\\video_compression\\videos\\BVI-HD\\BVI-HD_CDVL_videos\\ORIG\\BricksLeaves_1920x1080_60fps.mp4':\n  Metadata:\n    major_brand     : isom\n    minor_version   : 512\n    compatible_brands: isomiso2avc1mp41\n    encoder         : Lavf54.28.101\n  Duration: 00:00:05.00, start: 0.000000, bitrate: 524627 kb/s\n  Stream #0:0[0x1](und): Video: h264 (High 4:4:4 Predictive) (avc1 / 0x31637661), yuv420p(progressive), 1920x1080, 524622 kb/s, 60 fps, 60 tbr, 60 tbn (default)\n    Metadata:\n      handler_name    : VideoHandler\n      vendor_id       : [0][0][0][0]\n[out#0/mp4 @ 0000020cfbacab40] Codec AVOption b:a (set bitrate (in bits/s)) has not been used for any stream. The most likely reason is either wrong type (e.g. a video option with no video streams) or that it is a private option of some decoder which was not actually used for any stream.\nStream mapping:\n  Stream #0:0 -> #0:0 (h264 (native) -> hevc (libx265))\nPress [q] to stop, [?] for help\n[libx265 @ 0000020cfc6704c0] Unknown option: \"aq-mode.\nx265 [info]: HEVC encoder version 4.1+190-8f11c33ac\nx265 [info]: build info [Windows][GCC 15.1.0][64 bit] 10bit\nx265 [info]: using cpu capabilities: MMX2 SSE2Fast LZCNT SSSE3 SSE4.2 AVX FMA3 BMI2 AVX2\nx265 [info]: Main 10 profile, Level-4.1 (Main tier)\nx265 [info]: Thread pool created using 12 threads\nx265 [info]: Slices                              : 1\nx265 [info]: frame threads / pool features       : 3 / wpp(17 rows)\nx265 [info]: Coding QT: max CU size, min CU size : 64 / 8\nx265 [info]: Residual QT: max TU size, max depth : 32 / 1 inter / 1 intra\nx265 [info]: ME / range / subpel / merge         : star / 57 / 3 / 3\nx265 [info]: Keyframe min / max / scenecut / bias  : 25 / 250 / 40 / 5.00 \nx265 [info]: Lookahead / bframes / badapt        : 25 / 4 / 2\nx265 [info]: b-pyramid / weightp / weightb       : 1 / 1 / 0\nx265 [info]: References / ref-limit  cu / depth  : 4 / on / on\nx265 [info]: AQ: mode / str / qg-size / cu-tree  : 2 / 1.0 / 32 / 1\nx265 [info]: Rate Control / qCompress            : ABR-1500 kbps / 0.60\nx265 [info]: VBV/HRD buffer / max-rate / init    : 1500 / 1500 / 0.750\nx265 [info]: tools: rect limit-modes rd=4 psy-rd=2.00 rdoq=2 psy-rdoq=1.00\nx265 [info]: tools: rskip mode=1 signhide tmvp strong-intra-smoothing lslices=4\nx265 [info]: tools: deblock sao dhdr10-info\nOutput #0, mp4, to 'C:\\Users\\Peter\\Desktop\\stuff\\MIUN\\quantitative_research\\video_compression\\compressed_videos\\BVI-HD\\hevc\\1.5\\BricksLeaves_1920x1080_60fps_hevc.mp4':\n  Metadata:\n    major_brand     : isom\n    minor_version   : 512\n    compatible_brands: isomiso2avc1mp41\n    encoder         : Lavf62.3.100\n  Stream #0:0(und): Video: hevc (hev1 / 0x31766568), yuv420p10le(tv, progressive), 1920x1080, q=2-31, 1500 kb/s, 60 fps, 15360 tbn (default)\n    Metadata:\n      encoder         : Lavc62.11.100 libx265\n      handler_name    : VideoHandler\n      vendor_id       : [0][0][0][0]\n    Side data:\n      cpb: bitrate max/min/avg: 1500000/0/1500000 buffer size: 1500000 vbv_delay: N/A\nframe=    0 fps=0.0 q=0.0 size=       0KiB time=N/A bitrate=N/A speed=N/A elapsed=0:00:01.10    \nframe=    0 fps=0.0 q=0.0 size=       0KiB time=N/A bitrate=N/A speed=N/A elapsed=0:00:01.67    \nframe=    0 fps=0.0 q=0.0 size=       0KiB time=N/A bitrate=N/A speed=N/A elapsed=0:00:02.30    \nframe=    0 fps=0.0 q=0.0 size=       0KiB time=N/A bitrate=N/A speed=N/A elapsed=0:00:02.86    \nframe=    0 fps=0.0 q=0.0 size=       0KiB time=N/A bitrate=N/A speed=N/A elapsed=0:00:03.38    \nframe=    0 fps=0.0 q=0.0 size=       0KiB time=N/A bitrate=N/A speed=N/A elapsed=0:00:03.91    \nframe=    0 fps=0.0 q=0.0 size=       0KiB time=N/A bitrate=N/A speed=N/A elapsed=0:00:04.42    \nframe=    0 fps=0.0 q=0.0 size=       0KiB time=N/A bitrate=N/A speed=N/A elapsed=0:00:05.00    \nframe=    0 fps=0.0 q=0.0 size=       0KiB time=N/A bitrate=N/A speed=N/A elapsed=0:00:05.57    \nframe=    0 fps=0.0 q=0.0 size=       0KiB time=N/A bitrate=N/A speed=N/A elapsed=0:00:06.14    \nframe=    0 fps=0.0 q=0.0 size=       0KiB time=N/A bitrate=N/A speed=N/A elapsed=0:00:06.69    \nframe=    0 fps=0.0 q=0.0 size=       0KiB time=N/A bitrate=N/A speed=N/A elapsed=0:00:07.23    \nframe=    0 fps=0.0 q=0.0 size=       0KiB time=N/A bitrate=N/A speed=N/A elapsed=0:00:07.74    \nframe=    0 fps=0.0 q=0.0 size=       0KiB time=N/A bitrate=N/A speed=N/A elapsed=0:00:08.26    \nframe=    0 fps=0.0 q=0.0 size=       0KiB time=N/A bitrate=N/A speed=N/A elapsed=0:00:08.77    \nframe=    0 fps=0.0 q=0.0 size=       0KiB time=N/A bitrate=N/A speed=N/A elapsed=0:00:09.29    \nframe=    0 fps=0.0 q=0.0 size=       0KiB time=N/A bitrate=N/A speed=N/A elapsed=0:00:09.81    \nframe=    0 fps=0.0 q=0.0 size=       0KiB time=N/A bitrate=N/A speed=N/A elapsed=0:00:10.32    \nframe=    0 fps=0.0 q=0.0 size=       0KiB time=N/A bitrate=N/A speed=N/A elapsed=0:00:10.84    \nframe=    2 fps=0.2 q=51.0 size=       0KiB time=00:00:00.00 bitrate=N/A speed=   0x elapsed=0:00:11.38    \nframe=    3 fps=0.3 q=51.0 size=       0KiB time=00:00:00.01 bitrate=  21.1kbits/s speed=0.0014x elapsed=0:00:11.89    \nframe=    4 fps=0.3 q=51.0 size=       0KiB time=00:00:00.03 bitrate=  10.6kbits/s speed=0.00268x elapsed=0:00:12.42    \nframe=    6 fps=0.5 q=51.0 size=       0KiB time=00:00:00.06 bitrate=   5.3kbits/s speed=0.00515x elapsed=0:00:12.93    \nframe=    7 fps=0.5 q=48.4 size=       0KiB time=00:00:00.08 bitrate=   4.2kbits/s speed=0.0062x elapsed=0:00:13.44    \nframe=    7 fps=0.5 q=48.4 size=       0KiB time=00:00:00.08 bitrate=   4.2kbits/s speed=0.00596x elapsed=0:00:13.98    \nframe=    9 fps=0.6 q=51.0 size=       0KiB time=00:00:00.11 bitrate=   3.0kbits/s speed=0.00805x elapsed=0:00:14.49    \nframe=   10 fps=0.7 q=51.0 size=       0KiB time=00:00:00.13 bitrate=   2.6kbits/s speed=0.00888x elapsed=0:00:15.01    \nframe=   11 fps=0.7 q=51.0 size=       0KiB time=00:00:00.15 bitrate=   2.3kbits/s speed=0.00966x elapsed=0:00:15.52    \nframe=   12 fps=0.7 q=45.8 size=       0KiB time=00:00:00.16 bitrate=   2.1kbits/s speed=0.0104x elapsed=0:00:16.04    \nframe=   13 fps=0.8 q=51.0 size=       0KiB time=00:00:00.18 bitrate=   1.9kbits/s speed=0.0111x elapsed=0:00:16.55    \nframe=   14 fps=0.8 q=50.3 size=       0KiB time=00:00:00.20 bitrate=   1.8kbits/s speed=0.0117x elapsed=0:00:17.07    \nframe=   14 fps=0.8 q=50.3 size=       0KiB time=00:00:00.20 bitrate=   1.8kbits/s speed=0.0114x elapsed=0:00:17.59    \nframe=   15 fps=0.8 q=51.0 size=       0KiB time=00:00:00.21 bitrate=   1.6kbits/s speed=0.012x elapsed=0:00:18.11    \nframe=   16 fps=0.9 q=50.5 size=       0KiB time=00:00:00.23 bitrate=   1.5kbits/s speed=0.0125x elapsed=0:00:18.63    \nframe=   17 fps=0.9 q=44.6 size=       0KiB time=00:00:00.25 bitrate=   1.4kbits/s speed=0.0131x elapsed=0:00:19.15    \nframe=   18 fps=0.9 q=50.5 size=       0KiB time=00:00:00.26 bitrate=   1.3kbits/s speed=0.0136x elapsed=0:00:19.67    \nframe=   19 fps=0.9 q=50.6 size=       0KiB time=00:00:00.28 bitrate=   1.2kbits/s speed=0.014x elapsed=0:00:20.17    \nframe=   20 fps=1.0 q=51.0 size=       0KiB time=00:00:00.30 bitrate=   1.2kbits/s speed=0.0145x elapsed=0:00:20.69    \nframe=   20 fps=0.9 q=51.0 size=       0KiB time=00:00:00.30 bitrate=   1.2kbits/s speed=0.0141x elapsed=0:00:21.21    \nframe=   21 fps=1.0 q=51.0 size=       0KiB time=00:00:00.31 bitrate=   1.1kbits/s speed=0.0146x elapsed=0:00:21.72    \nframe=   22 fps=1.0 q=44.5 size=       0KiB time=00:00:00.33 bitrate=   1.1kbits/s speed=0.015x elapsed=0:00:22.24    \nframe=   23 fps=1.0 q=50.6 size=       0KiB time=00:00:00.35 bitrate=   1.0kbits/s speed=0.0154x elapsed=0:00:22.77    \nframe=   25 fps=1.1 q=51.0 size=       0KiB time=00:00:00.38 bitrate=   0.9kbits/s speed=0.0164x elapsed=0:00:23.30    \nframe=   26 fps=1.1 q=51.0 size=       0KiB time=00:00:00.40 bitrate=   0.9kbits/s speed=0.0168x elapsed=0:00:23.85    \nframe=   26 fps=1.1 q=51.0 size=       0KiB time=00:00:00.40 bitrate=   0.9kbits/s speed=0.0164x elapsed=0:00:24.38    \nframe=   27 fps=1.1 q=44.4 size=       0KiB time=00:00:00.41 bitrate=   0.8kbits/s speed=0.0167x elapsed=0:00:24.90    \nframe=   27 fps=1.1 q=44.4 size=       0KiB time=00:00:00.41 bitrate=   0.8kbits/s speed=0.0164x elapsed=0:00:25.42    \nframe=   28 fps=1.1 q=50.5 size=       0KiB time=00:00:00.43 bitrate=   0.8kbits/s speed=0.0167x elapsed=0:00:25.95    \nframe=   29 fps=1.1 q=51.0 size=       0KiB time=00:00:00.45 bitrate=   0.8kbits/s speed=0.017x elapsed=0:00:26.46    \nframe=   30 fps=1.1 q=50.5 size=       0KiB time=00:00:00.46 bitrate=   0.8kbits/s speed=0.0173x elapsed=0:00:27.00    \nframe=   30 fps=1.1 q=50.5 size=       0KiB time=00:00:00.46 bitrate=   0.8kbits/s speed=0.017x elapsed=0:00:27.52    \nframe=   31 fps=1.1 q=50.6 size=       0KiB time=00:00:00.48 bitrate=   0.7kbits/s speed=0.0172x elapsed=0:00:28.07    \nframe=   32 fps=1.1 q=44.2 size=       0KiB time=00:00:00.50 bitrate=   0.7kbits/s speed=0.0175x elapsed=0:00:28.59    \nframe=   33 fps=1.1 q=49.6 size=       0KiB time=00:00:00.51 bitrate=   0.7kbits/s speed=0.0177x elapsed=0:00:29.12    \nframe=   34 fps=1.1 q=50.5 size=       0KiB time=00:00:00.53 bitrate=   0.7kbits/s speed=0.018x elapsed=0:00:29.64    \nframe=   35 fps=1.2 q=49.6 size=       0KiB time=00:00:00.55 bitrate=   0.6kbits/s speed=0.0182x elapsed=0:00:30.14    \nframe=   35 fps=1.1 q=49.6 size=       0KiB time=00:00:00.55 bitrate=   0.6kbits/s speed=0.0179x elapsed=0:00:30.68    \nframe=   36 fps=1.2 q=49.8 size=       0KiB time=00:00:00.56 bitrate=   0.6kbits/s speed=0.0182x elapsed=0:00:31.20    \nframe=   36 fps=1.1 q=49.8 size=       0KiB time=00:00:00.56 bitrate=   0.6kbits/s speed=0.0179x elapsed=0:00:31.71    \nframe=   36 fps=1.1 q=49.8 size=       0KiB time=00:00:00.56 bitrate=   0.6kbits/s speed=0.0176x elapsed=0:00:32.23    \nframe=   37 fps=1.1 q=44.0 size=       0KiB time=00:00:00.58 bitrate=   0.6kbits/s speed=0.0178x elapsed=0:00:32.75    \nframe=   37 fps=1.1 q=44.0 size=       0KiB time=00:00:00.58 bitrate=   0.6kbits/s speed=0.0175x elapsed=0:00:33.26    \nframe=   38 fps=1.1 q=49.4 size=       0KiB time=00:00:00.60 bitrate=   0.6kbits/s speed=0.0178x elapsed=0:00:33.78    \nframe=   39 fps=1.1 q=50.3 size=       0KiB time=00:00:00.61 bitrate=   0.6kbits/s speed=0.018x elapsed=0:00:34.30    \nframe=   39 fps=1.1 q=50.3 size=       0KiB time=00:00:00.61 bitrate=   0.6kbits/s speed=0.0177x elapsed=0:00:34.85    \nframe=   39 fps=1.1 q=50.3 size=       0KiB time=00:00:00.61 bitrate=   0.6kbits/s speed=0.0174x elapsed=0:00:35.38    \nframe=   40 fps=1.1 q=49.5 size=       0KiB time=00:00:00.63 bitrate=   0.6kbits/s speed=0.0176x elapsed=0:00:35.90    \nframe=   40 fps=1.1 q=49.5 size=       0KiB time=00:00:00.63 bitrate=   0.6kbits/s speed=0.0174x elapsed=0:00:36.44    \nframe=   41 fps=1.1 q=49.6 size=       0KiB time=00:00:00.65 bitrate=   0.5kbits/s speed=0.0176x elapsed=0:00:36.94    \nframe=   41 fps=1.1 q=49.6 size=       0KiB time=00:00:00.65 bitrate=   0.5kbits/s speed=0.0173x elapsed=0:00:37.47    \nframe=   42 fps=1.1 q=42.9 size=       0KiB time=00:00:00.66 bitrate=   0.5kbits/s speed=0.0175x elapsed=0:00:37.98    \nframe=   43 fps=1.1 q=49.1 size=       0KiB time=00:00:00.68 bitrate=   0.5kbits/s speed=0.0177x elapsed=0:00:38.50    \nframe=   43 fps=1.1 q=49.1 size=       0KiB time=00:00:00.68 bitrate=   0.5kbits/s speed=0.0175x elapsed=0:00:39.04    \nframe=   44 fps=1.1 q=50.3 size=       0KiB time=00:00:00.70 bitrate=   0.5kbits/s speed=0.0177x elapsed=0:00:39.57    \nframe=   44 fps=1.1 q=50.3 size=       0KiB time=00:00:00.70 bitrate=   0.5kbits/s speed=0.0175x elapsed=0:00:40.09    \nframe=   44 fps=1.1 q=50.3 size=       0KiB time=00:00:00.70 bitrate=   0.5kbits/s speed=0.0172x elapsed=0:00:40.61    \nframe=   44 fps=1.1 q=50.3 size=       0KiB time=00:00:00.70 bitrate=   0.5kbits/s speed=0.017x elapsed=0:00:41.11    \nframe=   45 fps=1.1 q=50.4 size=       0KiB time=00:00:00.71 bitrate=   0.5kbits/s speed=0.0172x elapsed=0:00:41.64    \nframe=   47 fps=1.1 q=44.1 size=       0KiB time=00:00:00.75 bitrate=   0.5kbits/s speed=0.0178x elapsed=0:00:42.15    \nframe=   48 fps=1.1 q=49.2 size=       0KiB time=00:00:00.76 bitrate=   0.5kbits/s speed=0.018x elapsed=0:00:42.66    \nframe=   48 fps=1.1 q=49.2 size=       0KiB time=00:00:00.76 bitrate=   0.5kbits/s speed=0.0178x elapsed=0:00:43.18    \nframe=   48 fps=1.1 q=49.2 size=       0KiB time=00:00:00.76 bitrate=   0.5kbits/s speed=0.0175x elapsed=0:00:43.76    \nframe=   48 fps=1.1 q=49.2 size=       0KiB time=00:00:00.76 bitrate=   0.5kbits/s speed=0.0173x elapsed=0:00:44.33    \nframe=   49 fps=1.1 q=50.3 size=       0KiB time=00:00:00.78 bitrate=   0.4kbits/s speed=0.0175x elapsed=0:00:44.87    \nframe=   49 fps=1.1 q=50.3 size=       0KiB time=00:00:00.78 bitrate=   0.4kbits/s speed=0.0173x elapsed=0:00:45.38    \nframe=   49 fps=1.1 q=50.3 size=       0KiB time=00:00:00.78 bitrate=   0.4kbits/s speed=0.0171x elapsed=0:00:45.92    \nframe=   50 fps=1.1 q=49.5 size=       0KiB time=00:00:00.80 bitrate=   0.4kbits/s speed=0.0172x elapsed=0:00:46.45    \nframe=   51 fps=1.1 q=49.4 size=       0KiB time=00:00:00.81 bitrate=   0.4kbits/s speed=0.0174x elapsed=0:00:46.97    \nframe=   51 fps=1.1 q=49.4 size=       0KiB time=00:00:00.81 bitrate=   0.4kbits/s speed=0.0172x elapsed=0:00:47.47    \nframe=   52 fps=1.1 q=43.2 size=       0KiB time=00:00:00.83 bitrate=   0.4kbits/s speed=0.0174x elapsed=0:00:48.00    \nframe=   52 fps=1.1 q=43.2 size=       0KiB time=00:00:00.83 bitrate=   0.4kbits/s speed=0.0172x elapsed=0:00:48.51    \nframe=   53 fps=1.1 q=48.6 size=       0KiB time=00:00:00.85 bitrate=   0.4kbits/s speed=0.0173x elapsed=0:00:49.04    \nframe=   54 fps=1.1 q=49.7 size=       0KiB time=00:00:00.86 bitrate=   0.4kbits/s speed=0.0175x elapsed=0:00:49.56    \nframe=   55 fps=1.1 q=49.4 size=       0KiB time=00:00:00.88 bitrate=   0.4kbits/s speed=0.0176x elapsed=0:00:50.07    \nframe=   56 fps=1.1 q=49.3 size=       0KiB time=00:00:00.90 bitrate=   0.4kbits/s speed=0.0178x elapsed=0:00:50.60    \nframe=   57 fps=1.1 q=43.4 size=       0KiB time=00:00:00.91 bitrate=   0.4kbits/s speed=0.0179x elapsed=0:00:51.12    \nframe=   58 fps=1.1 q=48.6 size=       0KiB time=00:00:00.93 bitrate=   0.4kbits/s speed=0.0181x elapsed=0:00:51.64    \nframe=   59 fps=1.1 q=49.5 size=       0KiB time=00:00:00.95 bitrate=   0.4kbits/s speed=0.0182x elapsed=0:00:52.17    \nframe=   59 fps=1.1 q=49.5 size=       0KiB time=00:00:00.95 bitrate=   0.4kbits/s speed=0.018x elapsed=0:00:52.68    \nframe=   59 fps=1.1 q=49.5 size=       0KiB time=00:00:00.95 bitrate=   0.4kbits/s speed=0.0178x elapsed=0:00:53.24    \nframe=   60 fps=1.1 q=48.7 size=       0KiB time=00:00:00.96 bitrate=   0.4kbits/s speed=0.018x elapsed=0:00:53.76    \nframe=   60 fps=1.1 q=48.7 size=       0KiB time=00:00:00.96 bitrate=   0.4kbits/s speed=0.0178x elapsed=0:00:54.27    \nframe=   61 fps=1.1 q=49.0 size=       0KiB time=00:00:00.98 bitrate=   0.4kbits/s speed=0.0179x elapsed=0:00:54.79    \nframe=   62 fps=1.1 q=43.4 size=       0KiB time=00:00:01.00 bitrate=   0.4kbits/s speed=0.0181x elapsed=0:00:55.31    \nframe=   62 fps=1.1 q=43.4 size=       0KiB time=00:00:01.00 bitrate=   0.4kbits/s speed=0.0179x elapsed=0:00:55.83    \nframe=   63 fps=1.1 q=48.2 size=       0KiB time=00:00:01.01 bitrate=   0.3kbits/s speed=0.018x elapsed=0:00:56.37    \nframe=   63 fps=1.1 q=48.2 size=       0KiB time=00:00:01.01 bitrate=   0.3kbits/s speed=0.0179x elapsed=0:00:56.91    \nframe=   64 fps=1.1 q=49.4 size=       0KiB time=00:00:01.03 bitrate=   0.3kbits/s speed=0.018x elapsed=0:00:57.44    \nframe=   64 fps=1.1 q=49.4 size=       0KiB time=00:00:01.03 bitrate=   0.3kbits/s speed=0.0178x elapsed=0:00:57.99    \nframe=   65 fps=1.1 q=48.6 size=       0KiB time=00:00:01.05 bitrate=   0.3kbits/s speed=0.0179x elapsed=0:00:58.53    \nframe=   65 fps=1.1 q=48.6 size=       0KiB time=00:00:01.05 bitrate=   0.3kbits/s speed=0.0178x elapsed=0:00:59.11    \nframe=   66 fps=1.1 q=48.7 size=       0KiB time=00:00:01.06 bitrate=   0.3kbits/s speed=0.0179x elapsed=0:00:59.63    \nframe=   67 fps=1.1 q=43.3 size=       0KiB time=00:00:01.08 bitrate=   0.3kbits/s speed=0.018x elapsed=0:01:00.14    \nframe=   68 fps=1.1 q=48.3 size=       0KiB time=00:00:01.10 bitrate=   0.3kbits/s speed=0.0181x elapsed=0:01:00.69    \nframe=   68 fps=1.1 q=48.3 size=       0KiB time=00:00:01.10 bitrate=   0.3kbits/s speed=0.018x elapsed=0:01:01.22    \nframe=   68 fps=1.1 q=48.3 size=       0KiB time=00:00:01.10 bitrate=   0.3kbits/s speed=0.0178x elapsed=0:01:01.74    \nframe=   69 fps=1.1 q=48.9 size=       0KiB time=00:00:01.11 bitrate=   0.3kbits/s speed=0.0179x elapsed=0:01:02.26    \nframe=   70 fps=1.1 q=48.7 size=       0KiB time=00:00:01.13 bitrate=   0.3kbits/s speed=0.018x elapsed=0:01:02.80    \nframe=   70 fps=1.1 q=48.7 size=       0KiB time=00:00:01.13 bitrate=   0.3kbits/s speed=0.0179x elapsed=0:01:03.32    \nframe=   70 fps=1.1 q=48.7 size=       0KiB time=00:00:01.13 bitrate=   0.3kbits/s speed=0.0178x elapsed=0:01:03.84    \nframe=   71 fps=1.1 q=48.7 size=       0KiB time=00:00:01.15 bitrate=   0.3kbits/s speed=0.0179x elapsed=0:01:04.35    \nframe=   72 fps=1.1 q=43.2 size=       0KiB time=00:00:01.16 bitrate=   0.3kbits/s speed=0.018x elapsed=0:01:04.88    \nframe=   73 fps=1.1 q=47.7 size=       0KiB time=00:00:01.18 bitrate=   0.3kbits/s speed=0.0181x elapsed=0:01:05.44    \nframe=   73 fps=1.1 q=47.7 size=       0KiB time=00:00:01.18 bitrate=   0.3kbits/s speed=0.0179x elapsed=0:01:05.97    \nframe=   74 fps=1.1 q=48.6 size=       0KiB time=00:00:01.20 bitrate=   0.3kbits/s speed=0.018x elapsed=0:01:06.50    \nframe=   74 fps=1.1 q=48.6 size=       0KiB time=00:00:01.20 bitrate=   0.3kbits/s speed=0.0179x elapsed=0:01:07.03    \nframe=   75 fps=1.1 q=48.5 size=       0KiB time=00:00:01.21 bitrate=   0.3kbits/s speed=0.018x elapsed=0:01:07.54    \nframe=   75 fps=1.1 q=48.5 size=       0KiB time=00:00:01.21 bitrate=   0.3kbits/s speed=0.0179x elapsed=0:01:08.06    \nframe=   76 fps=1.1 q=48.4 size=       0KiB time=00:00:01.23 bitrate=   0.3kbits/s speed=0.018x elapsed=0:01:08.58    \nframe=   76 fps=1.1 q=48.4 size=       0KiB time=00:00:01.23 bitrate=   0.3kbits/s speed=0.0178x elapsed=0:01:09.10    \nframe=   77 fps=1.1 q=42.7 size=       0KiB time=00:00:01.25 bitrate=   0.3kbits/s speed=0.018x elapsed=0:01:09.62    \nframe=   77 fps=1.1 q=42.7 size=       0KiB time=00:00:01.25 bitrate=   0.3kbits/s speed=0.0178x elapsed=0:01:10.15    \nframe=   79 fps=1.1 q=48.7 size=       0KiB time=00:00:01.28 bitrate=   0.3kbits/s speed=0.0182x elapsed=0:01:10.68    \nframe=   79 fps=1.1 q=48.7 size=       0KiB time=00:00:01.28 bitrate=   0.3kbits/s speed=0.018x elapsed=0:01:11.19    \nframe=   80 fps=1.1 q=48.9 size=       0KiB time=00:00:01.30 bitrate=   0.3kbits/s speed=0.0181x elapsed=0:01:11.72    \nframe=   82 fps=1.1 q=42.9 size=       0KiB time=00:00:01.33 bitrate=   0.3kbits/s speed=0.0185x elapsed=0:01:12.25    \nframe=   83 fps=1.1 q=47.9 size=       0KiB time=00:00:01.35 bitrate=   0.3kbits/s speed=0.0186x elapsed=0:01:12.76    \nframe=   84 fps=1.1 q=49.0 size=       0KiB time=00:00:01.36 bitrate=   0.3kbits/s speed=0.0186x elapsed=0:01:13.28    \nframe=   85 fps=1.2 q=48.6 size=       0KiB time=00:00:01.38 bitrate=   0.3kbits/s speed=0.0187x elapsed=0:01:13.79    \nframe=   85 fps=1.1 q=48.6 size=       0KiB time=00:00:01.38 bitrate=   0.3kbits/s speed=0.0186x elapsed=0:01:14.32    \nframe=   85 fps=1.1 q=48.6 size=       0KiB time=00:00:01.38 bitrate=   0.3kbits/s speed=0.0185x elapsed=0:01:14.87    \nframe=   86 fps=1.1 q=48.7 size=       0KiB time=00:00:01.40 bitrate=   0.3kbits/s speed=0.0186x elapsed=0:01:15.41    \nframe=   86 fps=1.1 q=48.7 size=       0KiB time=00:00:01.40 bitrate=   0.3kbits/s speed=0.0184x elapsed=0:01:16.00    \nframe=   86 fps=1.1 q=48.7 size=       0KiB time=00:00:01.40 bitrate=   0.3kbits/s speed=0.0183x elapsed=0:01:16.59    \nframe=   86 fps=1.1 q=48.7 size=       0KiB time=00:00:01.40 bitrate=   0.3kbits/s speed=0.0181x elapsed=0:01:17.13    \nframe=   86 fps=1.1 q=48.7 size=       0KiB time=00:00:01.40 bitrate=   0.3kbits/s speed=0.018x elapsed=0:01:17.68    \nframe=   86 fps=1.1 q=48.7 size=       0KiB time=00:00:01.40 bitrate=   0.3kbits/s speed=0.0179x elapsed=0:01:18.23    \nframe=   86 fps=1.1 q=48.7 size=       0KiB time=00:00:01.40 bitrate=   0.3kbits/s speed=0.0178x elapsed=0:01:18.77    \nframe=   87 fps=1.1 q=42.4 size=       0KiB time=00:00:01.41 bitrate=   0.2kbits/s speed=0.0179x elapsed=0:01:19.31    \nframe=   88 fps=1.1 q=47.8 size=       0KiB time=00:00:01.43 bitrate=   0.2kbits/s speed=0.018x elapsed=0:01:19.82    \nframe=   89 fps=1.1 q=48.9 size=     256KiB time=00:00:01.45 bitrate=1446.6kbits/s speed=0.018x elapsed=0:01:20.37    \nframe=   89 fps=1.1 q=48.9 size=     256KiB time=00:00:01.45 bitrate=1446.6kbits/s speed=0.0179x elapsed=0:01:20.91    \nframe=   90 fps=1.1 q=48.8 size=     256KiB time=00:00:01.46 bitrate=1430.1kbits/s speed=0.018x elapsed=0:01:21.41    \nframe=   92 fps=1.1 q=43.2 size=     256KiB time=00:00:01.50 bitrate=1398.3kbits/s speed=0.0183x elapsed=0:01:21.93    \nframe=   93 fps=1.1 q=47.8 size=     256KiB time=00:00:01.51 bitrate=1383.0kbits/s speed=0.0184x elapsed=0:01:22.45    \nframe=   94 fps=1.1 q=48.9 size=     256KiB time=00:00:01.53 bitrate=1367.9kbits/s speed=0.0185x elapsed=0:01:22.97    \nframe=   96 fps=1.1 q=48.7 size=     256KiB time=00:00:01.56 bitrate=1338.8kbits/s speed=0.0188x elapsed=0:01:23.48    \nframe=   97 fps=1.2 q=42.4 size=     256KiB time=00:00:01.58 bitrate=1324.7kbits/s speed=0.0188x elapsed=0:01:24.00    \nframe=   98 fps=1.2 q=47.8 size=     256KiB time=00:00:01.60 bitrate=1310.9kbits/s speed=0.0189x elapsed=0:01:24.50    \nframe=  100 fps=1.2 q=48.9 size=     256KiB time=00:00:01.63 bitrate=1284.2kbits/s speed=0.0192x elapsed=0:01:25.03    \nframe=  100 fps=1.2 q=48.9 size=     256KiB time=00:00:01.63 bitrate=1284.2kbits/s speed=0.0191x elapsed=0:01:25.57    \nframe=  100 fps=1.2 q=48.9 size=     256KiB time=00:00:01.63 bitrate=1284.2kbits/s speed=0.019x elapsed=0:01:26.15    \nframe=  100 fps=1.2 q=48.9 size=     256KiB time=00:00:01.63 bitrate=1284.2kbits/s speed=0.0188x elapsed=0:01:26.67    \nframe=  101 fps=1.2 q=48.7 size=     256KiB time=00:00:01.65 bitrate=1271.2kbits/s speed=0.0189x elapsed=0:01:27.19    \nframe=  102 fps=1.2 q=43.1 size=     256KiB time=00:00:01.66 bitrate=1258.5kbits/s speed=0.019x elapsed=0:01:27.72    \nframe=  103 fps=1.2 q=47.7 size=     256KiB time=00:00:01.68 bitrate=1246.0kbits/s speed=0.0191x elapsed=0:01:28.24    \nframe=  103 fps=1.2 q=47.7 size=     256KiB time=00:00:01.68 bitrate=1246.0kbits/s speed=0.019x elapsed=0:01:28.76    \nframe=  104 fps=1.2 q=48.8 size=     256KiB time=00:00:01.70 bitrate=1233.8kbits/s speed=0.019x elapsed=0:01:29.28    \nframe=  105 fps=1.2 q=48.5 size=     256KiB time=00:00:01.71 bitrate=1221.8kbits/s speed=0.0191x elapsed=0:01:29.83    \nframe=  105 fps=1.2 q=48.5 size=     256KiB time=00:00:01.71 bitrate=1221.8kbits/s speed=0.019x elapsed=0:01:30.36    \nframe=  105 fps=1.2 q=48.5 size=     256KiB time=00:00:01.71 bitrate=1221.8kbits/s speed=0.0189x elapsed=0:01:30.92    \nframe=  105 fps=1.1 q=48.5 size=     256KiB time=00:00:01.71 bitrate=1221.8kbits/s speed=0.0188x elapsed=0:01:31.47    \nframe=  105 fps=1.1 q=48.5 size=     256KiB time=00:00:01.71 bitrate=1221.8kbits/s speed=0.0186x elapsed=0:01:32.10    \nframe=  105 fps=1.1 q=48.5 size=     256KiB time=00:00:01.71 bitrate=1221.8kbits/s speed=0.0185x elapsed=0:01:32.69    \nframe=  106 fps=1.1 q=48.7 size=     256KiB time=00:00:01.73 bitrate=1210.1kbits/s speed=0.0186x elapsed=0:01:33.23    \nframe=  107 fps=1.1 q=43.1 size=     256KiB time=00:00:01.75 bitrate=1198.6kbits/s speed=0.0187x elapsed=0:01:33.76    \nframe=  107 fps=1.1 q=43.1 size=     256KiB time=00:00:01.75 bitrate=1198.6kbits/s speed=0.0186x elapsed=0:01:34.28    \nframe=  107 fps=1.1 q=43.1 size=     256KiB time=00:00:01.75 bitrate=1198.6kbits/s speed=0.0185x elapsed=0:01:34.81    \nframe=  107 fps=1.1 q=43.1 size=     256KiB time=00:00:01.75 bitrate=1198.6kbits/s speed=0.0184x elapsed=0:01:35.36    \nframe=  108 fps=1.1 q=47.8 size=     256KiB time=00:00:01.76 bitrate=1187.3kbits/s speed=0.0184x elapsed=0:01:35.93    \nframe=  109 fps=1.1 q=49.0 size=     256KiB time=00:00:01.78 bitrate=1176.2kbits/s speed=0.0185x elapsed=0:01:36.47    \nframe=  109 fps=1.1 q=49.0 size=     256KiB time=00:00:01.78 bitrate=1176.2kbits/s speed=0.0184x elapsed=0:01:37.00    \nframe=  110 fps=1.1 q=48.8 size=     256KiB time=00:00:01.80 bitrate=1165.3kbits/s speed=0.0185x elapsed=0:01:37.56    \nframe=  110 fps=1.1 q=48.8 size=     256KiB time=00:00:01.80 bitrate=1165.3kbits/s speed=0.0183x elapsed=0:01:38.11    \nframe=  110 fps=1.1 q=48.8 size=     256KiB time=00:00:01.80 bitrate=1165.3kbits/s speed=0.0182x elapsed=0:01:38.65    \nframe=  110 fps=1.1 q=48.8 size=     256KiB time=00:00:01.80 bitrate=1165.3kbits/s speed=0.0181x elapsed=0:01:39.21    \nframe=  110 fps=1.1 q=48.8 size=     256KiB time=00:00:01.80 bitrate=1165.3kbits/s speed=0.018x elapsed=0:01:39.76    \nframe=  111 fps=1.1 q=48.6 size=     256KiB time=00:00:01.81 bitrate=1154.6kbits/s speed=0.0181x elapsed=0:01:40.31    \nframe=  111 fps=1.1 q=48.6 size=     256KiB time=00:00:01.81 bitrate=1154.6kbits/s speed=0.018x elapsed=0:01:40.86    \nframe=  112 fps=1.1 q=42.6 size=     256KiB time=00:00:01.83 bitrate=1144.1kbits/s speed=0.0181x elapsed=0:01:41.40    \nframe=  112 fps=1.1 q=42.6 size=     256KiB time=00:00:01.83 bitrate=1144.1kbits/s speed=0.018x elapsed=0:01:41.94    \nframe=  112 fps=1.1 q=42.6 size=     256KiB time=00:00:01.83 bitrate=1144.1kbits/s speed=0.0179x elapsed=0:01:42.47    \nframe=  112 fps=1.1 q=42.6 size=     256KiB time=00:00:01.83 bitrate=1144.1kbits/s speed=0.0178x elapsed=0:01:43.00    \nframe=  112 fps=1.1 q=42.6 size=     256KiB time=00:00:01.83 bitrate=1144.1kbits/s speed=0.0177x elapsed=0:01:43.55    \nframe=  112 fps=1.1 q=42.6 size=     256KiB time=00:00:01.83 bitrate=1144.1kbits/s speed=0.0176x elapsed=0:01:44.12    \nframe=  113 fps=1.1 q=47.8 size=     256KiB time=00:00:01.85 bitrate=1133.8kbits/s speed=0.0177x elapsed=0:01:44.64    \nframe=  113 fps=1.1 q=47.8 size=     256KiB time=00:00:01.85 bitrate=1133.8kbits/s speed=0.0176x elapsed=0:01:45.17    \nframe=  113 fps=1.1 q=47.8 size=     256KiB time=00:00:01.85 bitrate=1133.8kbits/s speed=0.0175x elapsed=0:01:45.69    \nframe=  114 fps=1.1 q=49.0 size=     256KiB time=00:00:01.86 bitrate=1123.7kbits/s speed=0.0176x elapsed=0:01:46.21    \nframe=  114 fps=1.1 q=49.0 size=     256KiB time=00:00:01.86 bitrate=1123.7kbits/s speed=0.0175x elapsed=0:01:46.76    \nframe=  114 fps=1.1 q=49.0 size=     256KiB time=00:00:01.86 bitrate=1123.7kbits/s speed=0.0174x elapsed=0:01:47.31    \nframe=  115 fps=1.1 q=48.8 size=     256KiB time=00:00:01.88 bitrate=1113.7kbits/s speed=0.0175x elapsed=0:01:47.88    \nframe=  115 fps=1.1 q=48.8 size=     256KiB time=00:00:01.88 bitrate=1113.7kbits/s speed=0.0174x elapsed=0:01:48.42    \nframe=  117 fps=1.1 q=42.6 size=     256KiB time=00:00:01.90 bitrate=1103.9kbits/s speed=0.0174x elapsed=0:01:48.94    \nframe=  117 fps=1.1 q=42.6 size=     256KiB time=00:00:01.91 bitrate=1094.3kbits/s speed=0.0175x elapsed=0:01:49.50    \nframe=  118 fps=1.1 q=47.9 size=     256KiB time=00:00:01.93 bitrate=1084.9kbits/s speed=0.0176x elapsed=0:01:50.04    \nframe=  119 fps=1.1 q=48.9 size=     256KiB time=00:00:01.95 bitrate=1075.6kbits/s speed=0.0176x elapsed=0:01:50.58    \nframe=  120 fps=1.1 q=48.9 size=     256KiB time=00:00:01.96 bitrate=1066.5kbits/s speed=0.0177x elapsed=0:01:51.13    \nframe=  120 fps=1.1 q=48.9 size=     256KiB time=00:00:01.96 bitrate=1066.5kbits/s speed=0.0176x elapsed=0:01:51.68    \nframe=  120 fps=1.1 q=48.9 size=     256KiB time=00:00:01.96 bitrate=1066.5kbits/s speed=0.0175x elapsed=0:01:52.20    \nframe=  120 fps=1.1 q=48.9 size=     256KiB time=00:00:01.96 bitrate=1066.5kbits/s speed=0.0174x elapsed=0:01:52.75    \nframe=  121 fps=1.1 q=48.5 size=     256KiB time=00:00:01.98 bitrate=1057.6kbits/s speed=0.0175x elapsed=0:01:53.29    \nframe=  121 fps=1.1 q=48.5 size=     256KiB time=00:00:01.98 bitrate=1057.6kbits/s speed=0.0174x elapsed=0:01:53.86    \nframe=  121 fps=1.1 q=48.5 size=     256KiB time=00:00:01.98 bitrate=1057.6kbits/s speed=0.0173x elapsed=0:01:54.41    \nframe=  121 fps=1.1 q=48.5 size=     256KiB time=00:00:01.98 bitrate=1057.6kbits/s speed=0.0173x elapsed=0:01:54.96    \nframe=  121 fps=1.0 q=48.5 size=     256KiB time=00:00:01.98 bitrate=1057.6kbits/s speed=0.0172x elapsed=0:01:55.53    \nframe=  121 fps=1.0 q=48.5 size=     256KiB time=00:00:01.98 bitrate=1057.6kbits/s speed=0.0171x elapsed=0:01:56.07    \nframe=  121 fps=1.0 q=48.5 size=     256KiB time=00:00:01.98 bitrate=1057.6kbits/s speed=0.017x elapsed=0:01:56.63    \nframe=  122 fps=1.0 q=42.8 size=     256KiB time=00:00:02.00 bitrate=1048.8kbits/s speed=0.0171x elapsed=0:01:57.20    \nframe=  123 fps=1.0 q=47.9 size=     256KiB time=00:00:02.01 bitrate=1040.1kbits/s speed=0.0171x elapsed=0:01:57.73    \nframe=  123 fps=1.0 q=47.9 size=     256KiB time=00:00:02.01 bitrate=1040.1kbits/s speed=0.0171x elapsed=0:01:58.27    \nframe=  124 fps=1.0 q=49.0 size=     256KiB time=00:00:02.03 bitrate=1031.6kbits/s speed=0.0171x elapsed=0:01:58.85    \nframe=  125 fps=1.0 q=48.7 size=     256KiB time=00:00:02.05 bitrate=1023.2kbits/s speed=0.0172x elapsed=0:01:59.38    \nframe=  126 fps=1.1 q=48.7 size=     256KiB time=00:00:02.06 bitrate=1014.9kbits/s speed=0.0172x elapsed=0:01:59.94    \nframe=  126 fps=1.0 q=48.7 size=     256KiB time=00:00:02.06 bitrate=1014.9kbits/s speed=0.0172x elapsed=0:02:00.49    \nframe=  126 fps=1.0 q=48.7 size=     256KiB time=00:00:02.06 bitrate=1014.9kbits/s speed=0.0171x elapsed=0:02:01.04    \nframe=  126 fps=1.0 q=48.7 size=     256KiB time=00:00:02.06 bitrate=1014.9kbits/s speed=0.017x elapsed=0:02:01.58    \nframe=  126 fps=1.0 q=48.7 size=     256KiB time=00:00:02.06 bitrate=1014.9kbits/s speed=0.0169x elapsed=0:02:02.13    \nframe=  126 fps=1.0 q=48.7 size=     256KiB time=00:00:02.06 bitrate=1014.9kbits/s speed=0.0168x elapsed=0:02:02.67    \nframe=  126 fps=1.0 q=48.7 size=     256KiB time=00:00:02.06 bitrate=1014.9kbits/s speed=0.0168x elapsed=0:02:03.22    \nframe=  128 fps=1.0 q=47.6 size=     256KiB time=00:00:02.10 bitrate= 998.8kbits/s speed=0.017x elapsed=0:02:03.75    \nframe=  128 fps=1.0 q=47.6 size=     256KiB time=00:00:02.10 bitrate= 998.8kbits/s speed=0.0169x elapsed=0:02:04.30    \nframe=  128 fps=1.0 q=47.6 size=     256KiB time=00:00:02.10 bitrate= 998.8kbits/s speed=0.0168x elapsed=0:02:04.81    \nframe=  129 fps=1.0 q=49.2 size=     256KiB time=00:00:02.11 bitrate= 990.9kbits/s speed=0.0169x elapsed=0:02:05.34    \nframe=  129 fps=1.0 q=49.2 size=     256KiB time=00:00:02.11 bitrate= 990.9kbits/s speed=0.0168x elapsed=0:02:05.85    \nframe=  130 fps=1.0 q=48.4 size=     256KiB time=00:00:02.13 bitrate= 983.2kbits/s speed=0.0169x elapsed=0:02:06.37    \nframe=  130 fps=1.0 q=48.4 size=     256KiB time=00:00:02.13 bitrate= 983.2kbits/s speed=0.0168x elapsed=0:02:06.97    \nframe=  130 fps=1.0 q=48.4 size=     256KiB time=00:00:02.13 bitrate= 983.2kbits/s speed=0.0167x elapsed=0:02:07.57    \nframe=  131 fps=1.0 q=48.5 size=     256KiB time=00:00:02.15 bitrate= 975.6kbits/s speed=0.0168x elapsed=0:02:08.19    \nframe=  131 fps=1.0 q=48.5 size=     256KiB time=00:00:02.15 bitrate= 975.6kbits/s speed=0.0167x elapsed=0:02:08.78    \nframe=  131 fps=1.0 q=48.5 size=     256KiB time=00:00:02.15 bitrate= 975.6kbits/s speed=0.0166x elapsed=0:02:09.40    \nframe=  131 fps=1.0 q=48.5 size=     256KiB time=00:00:02.15 bitrate= 975.6kbits/s speed=0.0165x elapsed=0:02:09.99    \nframe=  131 fps=1.0 q=48.5 size=     256KiB time=00:00:02.15 bitrate= 975.6kbits/s speed=0.0165x elapsed=0:02:10.64    \nframe=  131 fps=1.0 q=48.5 size=     256KiB time=00:00:02.15 bitrate= 975.6kbits/s speed=0.0164x elapsed=0:02:11.28    \nframe=  131 fps=1.0 q=48.5 size=     256KiB time=00:00:02.15 bitrate= 975.6kbits/s speed=0.0163x elapsed=0:02:11.87    \nframe=  131 fps=1.0 q=48.5 size=     256KiB time=00:00:02.15 bitrate= 975.6kbits/s speed=0.0162x elapsed=0:02:12.47    \nframe=  132 fps=1.0 q=42.5 size=     256KiB time=00:00:02.16 bitrate= 968.1kbits/s speed=0.0163x elapsed=0:02:13.08    \nframe=  132 fps=1.0 q=42.5 size=     256KiB time=00:00:02.16 bitrate= 968.1kbits/s speed=0.0162x elapsed=0:02:13.73    \nframe=  132 fps=1.0 q=42.5 size=     256KiB time=00:00:02.16 bitrate= 968.1kbits/s speed=0.0161x elapsed=0:02:14.29    \nframe=  132 fps=1.0 q=42.5 size=     256KiB time=00:00:02.16 bitrate= 968.1kbits/s speed=0.0161x elapsed=0:02:14.84    \nframe=  133 fps=1.0 q=47.3 size=     256KiB time=00:00:02.18 bitrate= 960.7kbits/s speed=0.0161x elapsed=0:02:15.41    \nframe=  134 fps=1.0 q=48.6 size=     256KiB time=00:00:02.20 bitrate= 953.4kbits/s speed=0.0162x elapsed=0:02:15.98    \nframe=  135 fps=1.0 q=48.1 size=     256KiB time=00:00:02.21 bitrate= 946.2kbits/s speed=0.0162x elapsed=0:02:16.57    \nframe=  135 fps=1.0 q=48.1 size=     256KiB time=00:00:02.21 bitrate= 946.2kbits/s speed=0.0162x elapsed=0:02:17.11    \nframe=  136 fps=1.0 q=48.3 size=     256KiB time=00:00:02.23 bitrate= 939.2kbits/s speed=0.0162x elapsed=0:02:17.64    \nframe=  136 fps=1.0 q=48.3 size=     256KiB time=00:00:02.23 bitrate= 939.2kbits/s speed=0.0162x elapsed=0:02:18.17    \nframe=  137 fps=1.0 q=42.1 size=     256KiB time=00:00:02.25 bitrate= 932.2kbits/s speed=0.0162x elapsed=0:02:18.69    \nframe=  137 fps=1.0 q=42.1 size=     256KiB time=00:00:02.25 bitrate= 932.2kbits/s speed=0.0162x elapsed=0:02:19.21    \nframe=  138 fps=1.0 q=47.5 size=     256KiB time=00:00:02.26 bitrate= 925.4kbits/s speed=0.0162x elapsed=0:02:19.73    \nframe=  139 fps=1.0 q=49.0 size=     256KiB time=00:00:02.28 bitrate= 918.6kbits/s speed=0.0163x elapsed=0:02:20.26    \nframe=  140 fps=1.0 q=48.5 size=     256KiB time=00:00:02.30 bitrate= 912.0kbits/s speed=0.0163x elapsed=0:02:20.78    \nframe=  141 fps=1.0 q=48.4 size=     256KiB time=00:00:02.31 bitrate= 905.4kbits/s speed=0.0164x elapsed=0:02:21.28    \nframe=  141 fps=1.0 q=48.4 size=     256KiB time=00:00:02.31 bitrate= 905.4kbits/s speed=0.0163x elapsed=0:02:21.82    \nframe=  143 fps=1.0 q=47.5 size=     256KiB time=00:00:02.35 bitrate= 892.6kbits/s speed=0.0165x elapsed=0:02:22.38    \nframe=  144 fps=1.0 q=48.8 size=     256KiB time=00:00:02.36 bitrate= 886.3kbits/s speed=0.0166x elapsed=0:02:22.90    \nframe=  145 fps=1.0 q=48.3 size=     256KiB time=00:00:02.38 bitrate= 880.1kbits/s speed=0.0166x elapsed=0:02:23.46    \nframe=  145 fps=1.0 q=48.3 size=     256KiB time=00:00:02.38 bitrate= 880.1kbits/s speed=0.0166x elapsed=0:02:23.98    \nframe=  146 fps=1.0 q=48.6 size=     256KiB time=00:00:02.40 bitrate= 874.0kbits/s speed=0.0166x elapsed=0:02:24.50    \nframe=  146 fps=1.0 q=48.6 size=     256KiB time=00:00:02.40 bitrate= 874.0kbits/s speed=0.0165x elapsed=0:02:25.02    \nframe=  148 fps=1.0 q=47.7 size=     256KiB time=00:00:02.43 bitrate= 862.0kbits/s speed=0.0167x elapsed=0:02:25.52    \nframe=  148 fps=1.0 q=47.7 size=     256KiB time=00:00:02.43 bitrate= 862.0kbits/s speed=0.0167x elapsed=0:02:26.04    \nframe=  149 fps=1.0 q=48.8 size=     256KiB time=00:00:02.45 bitrate= 856.1kbits/s speed=0.0167x elapsed=0:02:26.57    \nframe=  149 fps=1.0 q=48.8 size=     256KiB time=00:00:02.45 bitrate= 856.1kbits/s speed=0.0167x elapsed=0:02:27.09    \nframe=  150 fps=1.0 q=48.4 size=     256KiB time=00:00:02.46 bitrate= 850.3kbits/s speed=0.0167x elapsed=0:02:27.61    \nframe=  151 fps=1.0 q=48.6 size=     256KiB time=00:00:02.48 bitrate= 844.6kbits/s speed=0.0168x elapsed=0:02:28.13    \nframe=  153 fps=1.0 q=47.6 size=     256KiB time=00:00:02.51 bitrate= 833.4kbits/s speed=0.0169x elapsed=0:02:28.66    \nframe=  153 fps=1.0 q=47.6 size=     256KiB time=00:00:02.51 bitrate= 833.4kbits/s speed=0.0169x elapsed=0:02:29.16    \nframe=  154 fps=1.0 q=48.7 size=     256KiB time=00:00:02.53 bitrate= 828.0kbits/s speed=0.0169x elapsed=0:02:29.70    \nframe=  155 fps=1.0 q=48.4 size=     256KiB time=00:00:02.55 bitrate= 822.6kbits/s speed=0.017x elapsed=0:02:30.22    \nframe=  155 fps=1.0 q=48.4 size=     256KiB time=00:00:02.55 bitrate= 822.6kbits/s speed=0.0169x elapsed=0:02:30.76    \nframe=  155 fps=1.0 q=48.4 size=     256KiB time=00:00:02.55 bitrate= 822.6kbits/s speed=0.0169x elapsed=0:02:31.28    \nframe=  156 fps=1.0 q=48.3 size=     256KiB time=00:00:02.56 bitrate= 817.2kbits/s speed=0.0169x elapsed=0:02:31.80    \nframe=  157 fps=1.0 q=42.5 size=     256KiB time=00:00:02.58 bitrate= 811.9kbits/s speed=0.017x elapsed=0:02:32.32    \nframe=  158 fps=1.0 q=47.3 size=     256KiB time=00:00:02.60 bitrate= 806.7kbits/s speed=0.017x elapsed=0:02:32.84    \nframe=  159 fps=1.0 q=48.7 size=     256KiB time=00:00:02.61 bitrate= 801.6kbits/s speed=0.0171x elapsed=0:02:33.35    \nframe=  160 fps=1.0 q=48.3 size=     256KiB time=00:00:02.63 bitrate= 796.5kbits/s speed=0.0171x elapsed=0:02:33.88    \nframe=  161 fps=1.0 q=48.5 size=     256KiB time=00:00:02.65 bitrate= 791.5kbits/s speed=0.0172x elapsed=0:02:34.42    \nframe=  161 fps=1.0 q=48.5 size=     256KiB time=00:00:02.65 bitrate= 791.5kbits/s speed=0.0171x elapsed=0:02:34.93    \nframe=  162 fps=1.0 q=42.4 size=     256KiB time=00:00:02.66 bitrate= 786.6kbits/s speed=0.0172x elapsed=0:02:35.45    \nframe=  162 fps=1.0 q=42.4 size=     256KiB time=00:00:02.66 bitrate= 786.6kbits/s speed=0.0171x elapsed=0:02:35.99    \nframe=  163 fps=1.0 q=47.4 size=     256KiB time=00:00:02.68 bitrate= 781.7kbits/s speed=0.0171x elapsed=0:02:36.51    \nframe=  164 fps=1.0 q=49.0 size=     256KiB time=00:00:02.70 bitrate= 776.9kbits/s speed=0.0172x elapsed=0:02:37.04    \nframe=  165 fps=1.0 q=48.4 size=     256KiB time=00:00:02.71 bitrate= 772.1kbits/s speed=0.0172x elapsed=0:02:37.57    \nframe=  165 fps=1.0 q=48.4 size=     256KiB time=00:00:02.71 bitrate= 772.1kbits/s speed=0.0172x elapsed=0:02:38.12    \nframe=  167 fps=1.1 q=42.1 size=     256KiB time=00:00:02.75 bitrate= 762.7kbits/s speed=0.0173x elapsed=0:02:38.64    \nframe=  167 fps=1.0 q=42.1 size=     256KiB time=00:00:02.75 bitrate= 762.7kbits/s speed=0.0173x elapsed=0:02:39.18    \nframe=  167 fps=1.0 q=42.1 size=     256KiB time=00:00:02.75 bitrate= 762.7kbits/s speed=0.0172x elapsed=0:02:39.71    \nframe=  167 fps=1.0 q=42.1 size=     256KiB time=00:00:02.75 bitrate= 762.7kbits/s speed=0.0172x elapsed=0:02:40.25    \nframe=  167 fps=1.0 q=42.1 size=     256KiB time=00:00:02.75 bitrate= 762.7kbits/s speed=0.0171x elapsed=0:02:40.79    \nframe=  167 fps=1.0 q=42.1 size=     256KiB time=00:00:02.75 bitrate= 762.7kbits/s speed=0.017x elapsed=0:02:41.32    \nframe=  168 fps=1.0 q=47.4 size=     256KiB time=00:00:02.76 bitrate= 758.1kbits/s speed=0.0171x elapsed=0:02:41.85    \nframe=  168 fps=1.0 q=47.4 size=     256KiB time=00:00:02.76 bitrate= 758.1kbits/s speed=0.017x elapsed=0:02:42.37    \nframe=  169 fps=1.0 q=48.4 size=     256KiB time=00:00:02.78 bitrate= 753.6kbits/s speed=0.0171x elapsed=0:02:42.91    \nframe=  169 fps=1.0 q=48.4 size=     256KiB time=00:00:02.78 bitrate= 753.6kbits/s speed=0.017x elapsed=0:02:43.44    \nframe=  169 fps=1.0 q=48.4 size=     256KiB time=00:00:02.78 bitrate= 753.6kbits/s speed=0.017x elapsed=0:02:43.98    \nframe=  170 fps=1.0 q=48.0 size=     256KiB time=00:00:02.80 bitrate= 749.1kbits/s speed=0.017x elapsed=0:02:44.54    \nframe=  170 fps=1.0 q=48.0 size=     256KiB time=00:00:02.80 bitrate= 749.1kbits/s speed=0.017x elapsed=0:02:45.10    \nframe=  170 fps=1.0 q=48.0 size=     256KiB time=00:00:02.80 bitrate= 749.1kbits/s speed=0.0169x elapsed=0:02:45.69    \nframe=  170 fps=1.0 q=48.0 size=     256KiB time=00:00:02.80 bitrate= 749.1kbits/s speed=0.0168x elapsed=0:02:46.27    \nframe=  170 fps=1.0 q=48.0 size=     256KiB time=00:00:02.80 bitrate= 749.1kbits/s speed=0.0168x elapsed=0:02:46.91    \nframe=  171 fps=1.0 q=48.0 size=     256KiB time=00:00:02.81 bitrate= 744.7kbits/s speed=0.0168x elapsed=0:02:47.44    \nframe=  172 fps=1.0 q=42.7 size=     256KiB time=00:00:02.83 bitrate= 740.3kbits/s speed=0.0169x elapsed=0:02:47.97    \nframe=  172 fps=1.0 q=42.7 size=     256KiB time=00:00:02.83 bitrate= 740.3kbits/s speed=0.0168x elapsed=0:02:48.50    \nframe=  172 fps=1.0 q=42.7 size=     256KiB time=00:00:02.83 bitrate= 740.3kbits/s speed=0.0168x elapsed=0:02:49.03    \nframe=  172 fps=1.0 q=42.7 size=     256KiB time=00:00:02.83 bitrate= 740.3kbits/s speed=0.0167x elapsed=0:02:49.58    \nframe=  174 fps=1.0 q=48.0 size=     256KiB time=00:00:02.86 bitrate= 731.7kbits/s speed=0.0169x elapsed=0:02:50.10    \nframe=  174 fps=1.0 q=48.0 size=     256KiB time=00:00:02.86 bitrate= 731.7kbits/s speed=0.0168x elapsed=0:02:50.63    \nframe=  174 fps=1.0 q=48.0 size=     256KiB time=00:00:02.86 bitrate= 731.7kbits/s speed=0.0167x elapsed=0:02:51.17    \nframe=  174 fps=1.0 q=48.0 size=     256KiB time=00:00:02.86 bitrate= 731.7kbits/s speed=0.0167x elapsed=0:02:51.70    \nframe=  174 fps=1.0 q=48.0 size=     256KiB time=00:00:02.86 bitrate= 731.7kbits/s speed=0.0166x elapsed=0:02:52.28    \nframe=  175 fps=1.0 q=48.1 size=     512KiB time=00:00:02.88 bitrate=1454.8kbits/s speed=0.0167x elapsed=0:02:52.81    \nframe=  175 fps=1.0 q=48.1 size=     512KiB time=00:00:02.88 bitrate=1454.8kbits/s speed=0.0166x elapsed=0:02:53.36    \nframe=  176 fps=1.0 q=48.2 size=     512KiB time=00:00:02.90 bitrate=1446.4kbits/s speed=0.0167x elapsed=0:02:53.91    \nframe=  176 fps=1.0 q=48.2 size=     512KiB time=00:00:02.90 bitrate=1446.4kbits/s speed=0.0166x elapsed=0:02:54.46    \nframe=  176 fps=1.0 q=48.2 size=     512KiB time=00:00:02.90 bitrate=1446.4kbits/s speed=0.0166x elapsed=0:02:55.00    \nframe=  177 fps=1.0 q=42.1 size=     512KiB time=00:00:02.91 bitrate=1438.2kbits/s speed=0.0166x elapsed=0:02:55.55    \nframe=  178 fps=1.0 q=47.0 size=     512KiB time=00:00:02.93 bitrate=1430.0kbits/s speed=0.0167x elapsed=0:02:56.12    \nframe=  178 fps=1.0 q=47.0 size=     512KiB time=00:00:02.93 bitrate=1430.0kbits/s speed=0.0166x elapsed=0:02:56.67    \nframe=  178 fps=1.0 q=47.0 size=     512KiB time=00:00:02.93 bitrate=1430.0kbits/s speed=0.0166x elapsed=0:02:57.23    \nframe=  178 fps=1.0 q=47.0 size=     512KiB time=00:00:02.93 bitrate=1430.0kbits/s speed=0.0165x elapsed=0:02:57.85    \nframe=  178 fps=1.0 q=47.0 size=     512KiB time=00:00:02.93 bitrate=1430.0kbits/s speed=0.0164x elapsed=0:02:58.42    \nframe=  178 fps=1.0 q=47.0 size=     512KiB time=00:00:02.93 bitrate=1430.0kbits/s speed=0.0164x elapsed=0:02:58.99    \nframe=  178 fps=1.0 q=47.0 size=     512KiB time=00:00:02.93 bitrate=1430.0kbits/s speed=0.0163x elapsed=0:02:59.58    \nframe=  179 fps=1.0 q=48.3 size=     512KiB time=00:00:02.95 bitrate=1421.9kbits/s speed=0.0164x elapsed=0:03:00.12    \nframe=  179 fps=1.0 q=48.3 size=     512KiB time=00:00:02.95 bitrate=1421.9kbits/s speed=0.0163x elapsed=0:03:00.67    \nframe=  179 fps=1.0 q=48.3 size=     512KiB time=00:00:02.95 bitrate=1421.9kbits/s speed=0.0163x elapsed=0:03:01.25    \nframe=  179 fps=1.0 q=48.3 size=     512KiB time=00:00:02.95 bitrate=1421.9kbits/s speed=0.0162x elapsed=0:03:01.82    \nframe=  179 fps=1.0 q=48.3 size=     512KiB time=00:00:02.95 bitrate=1421.9kbits/s speed=0.0162x elapsed=0:03:02.37    \nframe=  180 fps=1.0 q=48.1 size=     512KiB time=00:00:02.95 bitrate=1421.9kbits/s speed=0.0161x elapsed=0:03:02.91    \nframe=  181 fps=1.0 q=48.0 size=     512KiB time=00:00:02.98 bitrate=1406.0kbits/s speed=0.0163x elapsed=0:03:03.53    \nframe=  181 fps=1.0 q=48.0 size=     512KiB time=00:00:02.98 bitrate=1406.0kbits/s speed=0.0162x elapsed=0:03:04.11    \nframe=  183 fps=1.0 q=46.9 size=     512KiB time=00:00:03.01 bitrate=1390.5kbits/s speed=0.0163x elapsed=0:03:04.64    \nframe=  183 fps=1.0 q=46.9 size=     512KiB time=00:00:03.01 bitrate=1390.5kbits/s speed=0.0163x elapsed=0:03:05.15    \nframe=  184 fps=1.0 q=48.2 size=     512KiB time=00:00:03.03 bitrate=1382.9kbits/s speed=0.0163x elapsed=0:03:05.68    \nframe=  184 fps=1.0 q=48.2 size=     512KiB time=00:00:03.03 bitrate=1382.9kbits/s speed=0.0163x elapsed=0:03:06.19    \nframe=  185 fps=1.0 q=48.0 size=     512KiB time=00:00:03.05 bitrate=1375.3kbits/s speed=0.0163x elapsed=0:03:06.74    \nframe=  186 fps=1.0 q=47.7 size=     512KiB time=00:00:03.06 bitrate=1367.8kbits/s speed=0.0164x elapsed=0:03:07.30    \nframe=  187 fps=1.0 q=42.1 size=     512KiB time=00:00:03.08 bitrate=1360.4kbits/s speed=0.0164x elapsed=0:03:07.83    \nframe=  187 fps=1.0 q=42.1 size=     512KiB time=00:00:03.08 bitrate=1360.4kbits/s speed=0.0164x elapsed=0:03:08.35    \nframe=  187 fps=1.0 q=42.1 size=     512KiB time=00:00:03.08 bitrate=1360.4kbits/s speed=0.0163x elapsed=0:03:08.87    \nframe=  188 fps=1.0 q=46.9 size=     512KiB time=00:00:03.10 bitrate=1353.1kbits/s speed=0.0164x elapsed=0:03:09.39    \nframe=  189 fps=1.0 q=48.3 size=     512KiB time=00:00:03.11 bitrate=1345.9kbits/s speed=0.0164x elapsed=0:03:09.90    \nframe=  190 fps=1.0 q=47.6 size=     512KiB time=00:00:03.13 bitrate=1338.7kbits/s speed=0.0165x elapsed=0:03:10.42    \nframe=  191 fps=1.0 q=47.8 size=     512KiB time=00:00:03.15 bitrate=1331.6kbits/s speed=0.0165x elapsed=0:03:10.95    \nframe=  191 fps=1.0 q=47.8 size=     512KiB time=00:00:03.15 bitrate=1331.6kbits/s speed=0.0164x elapsed=0:03:11.51    \nframe=  192 fps=1.0 q=41.7 size=     512KiB time=00:00:03.16 bitrate=1324.6kbits/s speed=0.0165x elapsed=0:03:12.03    \nframe=  192 fps=1.0 q=41.7 size=     512KiB time=00:00:03.16 bitrate=1324.6kbits/s speed=0.0164x elapsed=0:03:12.55    \nframe=  192 fps=1.0 q=41.7 size=     512KiB time=00:00:03.16 bitrate=1324.6kbits/s speed=0.0164x elapsed=0:03:13.09    \nframe=  193 fps=1.0 q=46.5 size=     512KiB time=00:00:03.18 bitrate=1317.7kbits/s speed=0.0164x elapsed=0:03:13.61    \nframe=  194 fps=1.0 q=48.1 size=     512KiB time=00:00:03.20 bitrate=1310.8kbits/s speed=0.0165x elapsed=0:03:14.13    \nframe=  195 fps=1.0 q=47.5 size=     512KiB time=00:00:03.21 bitrate=1304.0kbits/s speed=0.0165x elapsed=0:03:14.65    \nframe=  195 fps=1.0 q=47.5 size=     512KiB time=00:00:03.21 bitrate=1304.0kbits/s speed=0.0165x elapsed=0:03:15.19    \nframe=  198 fps=1.0 q=46.6 size=     512KiB time=00:00:03.26 bitrate=1284.1kbits/s speed=0.0167x elapsed=0:03:15.71    \nframe=  199 fps=1.0 q=48.0 size=     512KiB time=00:00:03.28 bitrate=1277.6kbits/s speed=0.0167x elapsed=0:03:16.23    \nframe=  199 fps=1.0 q=48.0 size=     512KiB time=00:00:03.28 bitrate=1277.6kbits/s speed=0.0167x elapsed=0:03:16.74    \nframe=  199 fps=1.0 q=48.0 size=     512KiB time=00:00:03.28 bitrate=1277.6kbits/s speed=0.0166x elapsed=0:03:17.26    \nframe=  200 fps=1.0 q=47.8 size=     512KiB time=00:00:03.30 bitrate=1271.1kbits/s speed=0.0167x elapsed=0:03:17.78    \nframe=  202 fps=1.0 q=41.7 size=     512KiB time=00:00:03.33 bitrate=1258.4kbits/s speed=0.0168x elapsed=0:03:18.30    \nframe=  203 fps=1.0 q=47.1 size=     512KiB time=00:00:03.35 bitrate=1252.1kbits/s speed=0.0168x elapsed=0:03:18.83    \nframe=  203 fps=1.0 q=47.1 size=     512KiB time=00:00:03.35 bitrate=1252.1kbits/s speed=0.0168x elapsed=0:03:19.41    \nframe=  203 fps=1.0 q=47.1 size=     512KiB time=00:00:03.35 bitrate=1252.1kbits/s speed=0.0167x elapsed=0:03:20.04    \nframe=  203 fps=1.0 q=47.1 size=     512KiB time=00:00:03.35 bitrate=1252.1kbits/s speed=0.0167x elapsed=0:03:20.56    \nframe=  203 fps=1.0 q=47.1 size=     512KiB time=00:00:03.35 bitrate=1252.1kbits/s speed=0.0167x elapsed=0:03:21.09    \nframe=  203 fps=1.0 q=47.1 size=     512KiB time=00:00:03.35 bitrate=1252.1kbits/s speed=0.0166x elapsed=0:03:21.62    \nframe=  204 fps=1.0 q=48.2 size=     512KiB time=00:00:03.36 bitrate=1245.9kbits/s speed=0.0167x elapsed=0:03:22.15    \nframe=  204 fps=1.0 q=48.2 size=     512KiB time=00:00:03.36 bitrate=1245.9kbits/s speed=0.0166x elapsed=0:03:22.70    \nframe=  205 fps=1.0 q=47.5 size=     512KiB time=00:00:03.38 bitrate=1239.8kbits/s speed=0.0166x elapsed=0:03:23.24    \nframe=  207 fps=1.0 q=42.1 size=     512KiB time=00:00:03.41 bitrate=1227.7kbits/s speed=0.0168x elapsed=0:03:23.78    \nframe=  207 fps=1.0 q=42.1 size=     512KiB time=00:00:03.41 bitrate=1227.7kbits/s speed=0.0167x elapsed=0:03:24.35    \nframe=  207 fps=1.0 q=42.1 size=     512KiB time=00:00:03.41 bitrate=1227.7kbits/s speed=0.0167x elapsed=0:03:24.87    \nframe=  209 fps=1.0 q=47.8 size=     512KiB time=00:00:03.45 bitrate=1215.8kbits/s speed=0.0168x elapsed=0:03:25.39    \nframe=  209 fps=1.0 q=47.8 size=     512KiB time=00:00:03.45 bitrate=1215.8kbits/s speed=0.0168x elapsed=0:03:25.94    \nframe=  209 fps=1.0 q=47.8 size=     512KiB time=00:00:03.45 bitrate=1215.8kbits/s speed=0.0167x elapsed=0:03:26.49    \nframe=  209 fps=1.0 q=47.8 size=     512KiB time=00:00:03.45 bitrate=1215.8kbits/s speed=0.0167x elapsed=0:03:27.04    \nframe=  210 fps=1.0 q=47.4 size=     512KiB time=00:00:03.46 bitrate=1210.0kbits/s speed=0.0167x elapsed=0:03:27.56    \nframe=  210 fps=1.0 q=47.4 size=     512KiB time=00:00:03.46 bitrate=1210.0kbits/s speed=0.0167x elapsed=0:03:28.13    \nframe=  210 fps=1.0 q=47.4 size=     512KiB time=00:00:03.46 bitrate=1210.0kbits/s speed=0.0166x elapsed=0:03:28.71    \nframe=  211 fps=1.0 q=47.2 size=     512KiB time=00:00:03.48 bitrate=1204.2kbits/s speed=0.0166x elapsed=0:03:29.23    \nframe=  212 fps=1.0 q=42.0 size=     512KiB time=00:00:03.50 bitrate=1198.5kbits/s speed=0.0167x elapsed=0:03:29.81    \nframe=  212 fps=1.0 q=42.0 size=     512KiB time=00:00:03.50 bitrate=1198.5kbits/s speed=0.0166x elapsed=0:03:30.36    \nframe=  213 fps=1.0 q=46.7 size=     512KiB time=00:00:03.51 bitrate=1192.8kbits/s speed=0.0167x elapsed=0:03:30.88    \nframe=  213 fps=1.0 q=46.7 size=     512KiB time=00:00:03.51 bitrate=1192.8kbits/s speed=0.0166x elapsed=0:03:31.43    \nframe=  213 fps=1.0 q=46.7 size=     512KiB time=00:00:03.51 bitrate=1192.8kbits/s speed=0.0166x elapsed=0:03:31.99    \nframe=  215 fps=1.0 q=47.4 size=     512KiB time=00:00:03.55 bitrate=1181.6kbits/s speed=0.0167x elapsed=0:03:32.51    \nframe=  215 fps=1.0 q=47.4 size=     512KiB time=00:00:03.55 bitrate=1181.6kbits/s speed=0.0167x elapsed=0:03:33.03    \nframe=  216 fps=1.0 q=47.6 size=     512KiB time=00:00:03.56 bitrate=1176.1kbits/s speed=0.0167x elapsed=0:03:33.59    \nframe=  216 fps=1.0 q=47.6 size=     512KiB time=00:00:03.56 bitrate=1176.1kbits/s speed=0.0167x elapsed=0:03:34.14    \nframe=  218 fps=1.0 q=46.9 size=     512KiB time=00:00:03.60 bitrate=1165.2kbits/s speed=0.0168x elapsed=0:03:34.67    \nframe=  218 fps=1.0 q=46.9 size=     512KiB time=00:00:03.60 bitrate=1165.2kbits/s speed=0.0167x elapsed=0:03:35.21    \nframe=  218 fps=1.0 q=46.9 size=     512KiB time=00:00:03.60 bitrate=1165.2kbits/s speed=0.0167x elapsed=0:03:35.77    \nframe=  218 fps=1.0 q=46.9 size=     512KiB time=00:00:03.60 bitrate=1165.2kbits/s speed=0.0166x elapsed=0:03:36.31    \nframe=  218 fps=1.0 q=46.9 size=     512KiB time=00:00:03.60 bitrate=1165.2kbits/s speed=0.0166x elapsed=0:03:36.88    \nframe=  218 fps=1.0 q=46.9 size=     512KiB time=00:00:03.60 bitrate=1165.2kbits/s speed=0.0166x elapsed=0:03:37.45    \nframe=  219 fps=1.0 q=47.9 size=     512KiB time=00:00:03.61 bitrate=1159.8kbits/s speed=0.0166x elapsed=0:03:38.00    \nframe=  219 fps=1.0 q=47.9 size=     512KiB time=00:00:03.61 bitrate=1159.8kbits/s speed=0.0165x elapsed=0:03:38.53    \nframe=  219 fps=1.0 q=47.9 size=     512KiB time=00:00:03.61 bitrate=1159.8kbits/s speed=0.0165x elapsed=0:03:39.08    \nframe=  220 fps=1.0 q=47.8 size=     512KiB time=00:00:03.63 bitrate=1154.5kbits/s speed=0.0165x elapsed=0:03:39.63    \nframe=  221 fps=1.0 q=47.8 size=     512KiB time=00:00:03.65 bitrate=1149.2kbits/s speed=0.0166x elapsed=0:03:40.19    \nframe=  221 fps=1.0 q=47.8 size=     512KiB time=00:00:03.65 bitrate=1149.2kbits/s speed=0.0165x elapsed=0:03:40.72    \nframe=  221 fps=1.0 q=47.8 size=     512KiB time=00:00:03.65 bitrate=1149.2kbits/s speed=0.0165x elapsed=0:03:41.25    \nframe=  221 fps=1.0 q=47.8 size=     512KiB time=00:00:03.65 bitrate=1149.2kbits/s speed=0.0165x elapsed=0:03:41.77    \nframe=  221 fps=1.0 q=47.8 size=     512KiB time=00:00:03.65 bitrate=1149.2kbits/s speed=0.0164x elapsed=0:03:42.36    \nframe=  223 fps=1.0 q=47.4 size=     512KiB time=00:00:03.68 bitrate=1138.8kbits/s speed=0.0165x elapsed=0:03:42.93    \nframe=  224 fps=1.0 q=48.6 size=     512KiB time=00:00:03.68 bitrate=1138.8kbits/s speed=0.0165x elapsed=0:03:43.51    \nframe=  224 fps=1.0 q=48.6 size=     512KiB time=00:00:03.70 bitrate=1133.7kbits/s speed=0.0165x elapsed=0:03:44.10    \nframe=  224 fps=1.0 q=48.6 size=     512KiB time=00:00:03.70 bitrate=1133.7kbits/s speed=0.0165x elapsed=0:03:44.63    \nframe=  224 fps=1.0 q=48.6 size=     512KiB time=00:00:03.70 bitrate=1133.7kbits/s speed=0.0164x elapsed=0:03:45.16    \nframe=  224 fps=1.0 q=48.6 size=     512KiB time=00:00:03.70 bitrate=1133.7kbits/s speed=0.0164x elapsed=0:03:45.70    \nframe=  224 fps=1.0 q=48.6 size=     512KiB time=00:00:03.70 bitrate=1133.7kbits/s speed=0.0164x elapsed=0:03:46.28    \nframe=  225 fps=1.0 q=48.2 size=     512KiB time=00:00:03.71 bitrate=1128.6kbits/s speed=0.0164x elapsed=0:03:46.82    \nframe=  225 fps=1.0 q=48.2 size=     512KiB time=00:00:03.71 bitrate=1128.6kbits/s speed=0.0163x elapsed=0:03:47.45    \nframe=  225 fps=1.0 q=48.2 size=     512KiB time=00:00:03.71 bitrate=1128.6kbits/s speed=0.0163x elapsed=0:03:48.07    \nframe=  225 fps=1.0 q=48.2 size=     512KiB time=00:00:03.71 bitrate=1128.6kbits/s speed=0.0163x elapsed=0:03:48.65    \nframe=  225 fps=1.0 q=48.2 size=     512KiB time=00:00:03.71 bitrate=1128.6kbits/s speed=0.0162x elapsed=0:03:49.24    \nframe=  225 fps=1.0 q=48.2 size=     512KiB time=00:00:03.71 bitrate=1128.6kbits/s speed=0.0162x elapsed=0:03:49.88    \nframe=  226 fps=1.0 q=48.4 size=     512KiB time=00:00:03.73 bitrate=1123.6kbits/s speed=0.0162x elapsed=0:03:50.41    \nframe=  227 fps=1.0 q=42.7 size=     512KiB time=00:00:03.75 bitrate=1118.6kbits/s speed=0.0162x elapsed=0:03:50.94    \nframe=  227 fps=1.0 q=42.7 size=     512KiB time=00:00:03.75 bitrate=1118.6kbits/s speed=0.0162x elapsed=0:03:51.46    \nframe=  227 fps=1.0 q=42.7 size=     512KiB time=00:00:03.75 bitrate=1118.6kbits/s speed=0.0162x elapsed=0:03:51.98    \nframe=  227 fps=1.0 q=42.7 size=     512KiB time=00:00:03.75 bitrate=1118.6kbits/s speed=0.0161x elapsed=0:03:52.53    \nframe=  227 fps=1.0 q=42.7 size=     512KiB time=00:00:03.75 bitrate=1118.6kbits/s speed=0.0161x elapsed=0:03:53.09    \nframe=  227 fps=1.0 q=42.7 size=     512KiB time=00:00:03.75 bitrate=1118.6kbits/s speed=0.0161x elapsed=0:03:53.62    \nframe=  228 fps=1.0 q=49.0 size=     512KiB time=00:00:03.76 bitrate=1113.6kbits/s speed=0.0161x elapsed=0:03:54.15    \nframe=  229 fps=1.0 q=49.2 size=     512KiB time=00:00:03.78 bitrate=1108.7kbits/s speed=0.0161x elapsed=0:03:54.72    \nframe=  229 fps=1.0 q=49.2 size=     512KiB time=00:00:03.78 bitrate=1108.7kbits/s speed=0.0161x elapsed=0:03:55.28    \nframe=  229 fps=1.0 q=49.2 size=     512KiB time=00:00:03.78 bitrate=1108.7kbits/s speed=0.016x elapsed=0:03:55.83    \nframe=  229 fps=1.0 q=49.2 size=     512KiB time=00:00:03.78 bitrate=1108.7kbits/s speed=0.016x elapsed=0:03:56.39    \nframe=  229 fps=1.0 q=49.2 size=     512KiB time=00:00:03.78 bitrate=1108.7kbits/s speed=0.016x elapsed=0:03:56.93    \nframe=  229 fps=1.0 q=49.2 size=     512KiB time=00:00:03.78 bitrate=1108.7kbits/s speed=0.0159x elapsed=0:03:57.58    \nframe=  230 fps=1.0 q=49.4 size=     512KiB time=00:00:03.80 bitrate=1103.9kbits/s speed=0.016x elapsed=0:03:58.21    \nframe=  231 fps=1.0 q=49.2 size=     512KiB time=00:00:03.81 bitrate=1099.0kbits/s speed=0.016x elapsed=0:03:58.80    \nframe=  231 fps=1.0 q=49.2 size=     512KiB time=00:00:03.81 bitrate=1099.0kbits/s speed=0.0159x elapsed=0:03:59.36    \nframe=  231 fps=1.0 q=49.2 size=     512KiB time=00:00:03.81 bitrate=1099.0kbits/s speed=0.0159x elapsed=0:03:59.99    \nframe=  231 fps=1.0 q=49.2 size=     512KiB time=00:00:03.81 bitrate=1099.0kbits/s speed=0.0159x elapsed=0:04:00.62    \nframe=  231 fps=1.0 q=49.2 size=     512KiB time=00:00:03.81 bitrate=1099.0kbits/s speed=0.0158x elapsed=0:04:01.24    \nframe=  231 fps=1.0 q=49.2 size=     512KiB time=00:00:03.81 bitrate=1099.0kbits/s speed=0.0158x elapsed=0:04:01.96    \nframe=  231 fps=1.0 q=49.2 size=     512KiB time=00:00:03.81 bitrate=1099.0kbits/s speed=0.0157x elapsed=0:04:02.74    \nframe=  231 fps=0.9 q=49.2 size=     512KiB time=00:00:03.81 bitrate=1099.0kbits/s speed=0.0157x elapsed=0:04:03.36    \nframe=  231 fps=0.9 q=49.2 size=     512KiB time=00:00:03.81 bitrate=1099.0kbits/s speed=0.0156x elapsed=0:04:03.99    \nframe=  231 fps=0.9 q=49.2 size=     512KiB time=00:00:03.81 bitrate=1099.0kbits/s speed=0.0156x elapsed=0:04:04.59    \nframe=  232 fps=0.9 q=43.8 size=     512KiB time=00:00:03.83 bitrate=1094.3kbits/s speed=0.0156x elapsed=0:04:05.18    \nframe=  232 fps=0.9 q=43.8 size=     512KiB time=00:00:03.83 bitrate=1094.3kbits/s speed=0.0156x elapsed=0:04:05.80    \nframe=  233 fps=0.9 q=49.9 size=     512KiB time=00:00:03.85 bitrate=1089.5kbits/s speed=0.0156x elapsed=0:04:06.37    \nframe=  233 fps=0.9 q=49.9 size=     512KiB time=00:00:03.85 bitrate=1089.5kbits/s speed=0.0156x elapsed=0:04:06.95    \nframe=  233 fps=0.9 q=49.9 size=     512KiB time=00:00:03.85 bitrate=1089.5kbits/s speed=0.0156x elapsed=0:04:07.56    \nframe=  233 fps=0.9 q=49.9 size=     512KiB time=00:00:03.85 bitrate=1089.5kbits/s speed=0.0155x elapsed=0:04:08.14    \nframe=  233 fps=0.9 q=49.9 size=     512KiB time=00:00:03.85 bitrate=1089.5kbits/s speed=0.0155x elapsed=0:04:08.71    \nframe=  233 fps=0.9 q=49.9 size=     512KiB time=00:00:03.85 bitrate=1089.5kbits/s speed=0.0154x elapsed=0:04:09.26    \nframe=  234 fps=0.9 q=49.8 size=     512KiB time=00:00:03.86 bitrate=1084.8kbits/s speed=0.0155x elapsed=0:04:09.85    \nframe=  234 fps=0.9 q=49.8 size=     512KiB time=00:00:03.86 bitrate=1084.8kbits/s speed=0.0154x elapsed=0:04:10.38    \nframe=  234 fps=0.9 q=49.8 size=     512KiB time=00:00:03.86 bitrate=1084.8kbits/s speed=0.0154x elapsed=0:04:10.91    \nframe=  235 fps=0.9 q=50.1 size=     512KiB time=00:00:03.88 bitrate=1080.2kbits/s speed=0.0154x elapsed=0:04:11.47    \nframe=  236 fps=0.9 q=50.3 size=     512KiB time=00:00:03.90 bitrate=1075.6kbits/s speed=0.0155x elapsed=0:04:11.99    \nframe=  236 fps=0.9 q=50.3 size=     512KiB time=00:00:03.90 bitrate=1075.6kbits/s speed=0.0154x elapsed=0:04:12.53    \nframe=  236 fps=0.9 q=50.3 size=     512KiB time=00:00:03.90 bitrate=1075.6kbits/s speed=0.0154x elapsed=0:04:13.13    \nframe=  236 fps=0.9 q=50.3 size=     512KiB time=00:00:03.90 bitrate=1075.6kbits/s speed=0.0154x elapsed=0:04:13.67    \nframe=  236 fps=0.9 q=50.3 size=     512KiB time=00:00:03.90 bitrate=1075.6kbits/s speed=0.0153x elapsed=0:04:14.19    \nframe=  236 fps=0.9 q=50.3 size=     512KiB time=00:00:03.90 bitrate=1075.6kbits/s speed=0.0153x elapsed=0:04:14.72    \nframe=  237 fps=0.9 q=44.7 size=     512KiB time=00:00:03.91 bitrate=1071.0kbits/s speed=0.0153x elapsed=0:04:15.28    \nframe=  237 fps=0.9 q=44.7 size=     512KiB time=00:00:03.91 bitrate=1071.0kbits/s speed=0.0153x elapsed=0:04:15.84    \nframe=  237 fps=0.9 q=44.7 size=     512KiB time=00:00:03.91 bitrate=1071.0kbits/s speed=0.0153x elapsed=0:04:16.36    \nframe=  238 fps=0.9 q=50.4 size=     512KiB time=00:00:03.93 bitrate=1066.4kbits/s speed=0.0153x elapsed=0:04:16.89    \nframe=  238 fps=0.9 q=50.4 size=     512KiB time=00:00:03.93 bitrate=1066.4kbits/s speed=0.0153x elapsed=0:04:17.50    \nframe=  239 fps=0.9 q=50.5 size=     512KiB time=00:00:03.95 bitrate=1061.9kbits/s speed=0.0153x elapsed=0:04:18.04    \nframe=  239 fps=0.9 q=50.5 size=     512KiB time=00:00:03.95 bitrate=1061.9kbits/s speed=0.0153x elapsed=0:04:18.57    \nframe=  240 fps=0.9 q=50.7 size=     512KiB time=00:00:03.96 bitrate=1057.5kbits/s speed=0.0153x elapsed=0:04:19.18    \nframe=  240 fps=0.9 q=50.7 size=     512KiB time=00:00:03.96 bitrate=1057.5kbits/s speed=0.0153x elapsed=0:04:19.74    \nframe=  240 fps=0.9 q=50.7 size=     512KiB time=00:00:03.96 bitrate=1057.5kbits/s speed=0.0152x elapsed=0:04:20.33    \nframe=  240 fps=0.9 q=50.7 size=     512KiB time=00:00:03.96 bitrate=1057.5kbits/s speed=0.0152x elapsed=0:04:20.88    \nframe=  241 fps=0.9 q=50.7 size=     512KiB time=00:00:03.98 bitrate=1053.1kbits/s speed=0.0152x elapsed=0:04:21.45    \nframe=  241 fps=0.9 q=50.7 size=     512KiB time=00:00:03.98 bitrate=1053.1kbits/s speed=0.0152x elapsed=0:04:21.99    \nframe=  241 fps=0.9 q=50.7 size=     512KiB time=00:00:03.98 bitrate=1053.1kbits/s speed=0.0152x elapsed=0:04:22.55    \nframe=  242 fps=0.9 q=45.6 size=     512KiB time=00:00:04.00 bitrate=1048.7kbits/s speed=0.0152x elapsed=0:04:23.10    \nframe=  242 fps=0.9 q=45.6 size=     512KiB time=00:00:04.00 bitrate=1048.7kbits/s speed=0.0152x elapsed=0:04:23.65    \nframe=  242 fps=0.9 q=45.6 size=     512KiB time=00:00:04.00 bitrate=1048.7kbits/s speed=0.0151x elapsed=0:04:24.17    \nframe=  242 fps=0.9 q=45.6 size=     512KiB time=00:00:04.00 bitrate=1048.7kbits/s speed=0.0151x elapsed=0:04:24.69    \nframe=  243 fps=0.9 q=50.8 size=     512KiB time=00:00:04.01 bitrate=1044.3kbits/s speed=0.0151x elapsed=0:04:25.27    \nframe=  243 fps=0.9 q=50.8 size=     512KiB time=00:00:04.01 bitrate=1044.3kbits/s speed=0.0151x elapsed=0:04:25.79    \nframe=  244 fps=0.9 q=50.9 size=     512KiB time=00:00:04.03 bitrate=1040.0kbits/s speed=0.0151x elapsed=0:04:26.32    \nframe=  244 fps=0.9 q=50.9 size=     512KiB time=00:00:04.03 bitrate=1040.0kbits/s speed=0.0151x elapsed=0:04:26.88    \nframe=  244 fps=0.9 q=50.9 size=     512KiB time=00:00:04.03 bitrate=1040.0kbits/s speed=0.0151x elapsed=0:04:27.41    \nframe=  244 fps=0.9 q=50.9 size=     512KiB time=00:00:04.03 bitrate=1040.0kbits/s speed=0.0151x elapsed=0:04:27.93    \nframe=  244 fps=0.9 q=50.9 size=     512KiB time=00:00:04.03 bitrate=1040.0kbits/s speed=0.015x elapsed=0:04:28.46    \nframe=  244 fps=0.9 q=50.9 size=     512KiB time=00:00:04.03 bitrate=1040.0kbits/s speed=0.015x elapsed=0:04:28.97    \nframe=  244 fps=0.9 q=50.9 size=     512KiB time=00:00:04.03 bitrate=1040.0kbits/s speed=0.015x elapsed=0:04:29.52    \nframe=  245 fps=0.9 q=51.0 size=     512KiB time=00:00:04.05 bitrate=1035.7kbits/s speed=0.015x elapsed=0:04:30.04    \nframe=  245 fps=0.9 q=51.0 size=     512KiB time=00:00:04.05 bitrate=1035.7kbits/s speed=0.015x elapsed=0:04:30.59    \nframe=  246 fps=0.9 q=51.0 size=     512KiB time=00:00:04.06 bitrate=1031.5kbits/s speed=0.015x elapsed=0:04:31.12    \nframe=  246 fps=0.9 q=51.0 size=     512KiB time=00:00:04.06 bitrate=1031.5kbits/s speed=0.015x elapsed=0:04:31.67    \nframe=  246 fps=0.9 q=51.0 size=     512KiB time=00:00:04.06 bitrate=1031.5kbits/s speed=0.0149x elapsed=0:04:32.18    \nframe=  246 fps=0.9 q=51.0 size=     512KiB time=00:00:04.06 bitrate=1031.5kbits/s speed=0.0149x elapsed=0:04:32.69    \nframe=  247 fps=0.9 q=43.5 size=     512KiB time=00:00:04.08 bitrate=1027.3kbits/s speed=0.0149x elapsed=0:04:33.24    \nframe=  247 fps=0.9 q=43.5 size=     512KiB time=00:00:04.08 bitrate=1027.3kbits/s speed=0.0149x elapsed=0:04:33.83    \nframe=  247 fps=0.9 q=43.5 size=     512KiB time=00:00:04.08 bitrate=1027.3kbits/s speed=0.0149x elapsed=0:04:34.34    \nframe=  248 fps=0.9 q=51.0 size=     768KiB time=00:00:04.08 bitrate=1540.9kbits/s speed=0.0149x elapsed=0:04:34.85    \nframe=  248 fps=0.9 q=51.0 size=     768KiB time=00:00:04.10 bitrate=1534.6kbits/s speed=0.0149x elapsed=0:04:35.38    \nframe=  248 fps=0.9 q=51.0 size=     768KiB time=00:00:04.10 bitrate=1534.6kbits/s speed=0.0149x elapsed=0:04:35.92    \nframe=  248 fps=0.9 q=51.0 size=     768KiB time=00:00:04.10 bitrate=1534.6kbits/s speed=0.0148x elapsed=0:04:36.48    \nframe=  248 fps=0.9 q=51.0 size=     768KiB time=00:00:04.10 bitrate=1534.6kbits/s speed=0.0148x elapsed=0:04:37.11    \nframe=  248 fps=0.9 q=51.0 size=     768KiB time=00:00:04.10 bitrate=1534.6kbits/s speed=0.0148x elapsed=0:04:37.70    \nframe=  248 fps=0.9 q=51.0 size=     768KiB time=00:00:04.10 bitrate=1534.6kbits/s speed=0.0147x elapsed=0:04:38.21    \nframe=  248 fps=0.9 q=51.0 size=     768KiB time=00:00:04.10 bitrate=1534.6kbits/s speed=0.0147x elapsed=0:04:38.74    \nframe=  249 fps=0.9 q=51.0 size=     768KiB time=00:00:04.11 bitrate=1528.4kbits/s speed=0.0147x elapsed=0:04:39.29    \nframe=  250 fps=0.9 q=51.0 size=     768KiB time=00:00:04.13 bitrate=1522.2kbits/s speed=0.0148x elapsed=0:04:39.88    \nframe=  250 fps=0.9 q=51.0 size=     768KiB time=00:00:04.13 bitrate=1522.2kbits/s speed=0.0147x elapsed=0:04:40.40    \nframe=  250 fps=0.9 q=51.0 size=     768KiB time=00:00:04.13 bitrate=1522.2kbits/s speed=0.0147x elapsed=0:04:40.94    \nframe=  250 fps=0.9 q=51.0 size=     768KiB time=00:00:04.13 bitrate=1522.2kbits/s speed=0.0147x elapsed=0:04:41.51    \nframe=  250 fps=0.9 q=51.0 size=     768KiB time=00:00:04.13 bitrate=1522.2kbits/s speed=0.0147x elapsed=0:04:42.04    \nframe=  251 fps=0.9 q=51.0 size=     768KiB time=00:00:04.15 bitrate=1516.1kbits/s speed=0.0147x elapsed=0:04:42.59    \nframe=  251 fps=0.9 q=51.0 size=     768KiB time=00:00:04.15 bitrate=1516.1kbits/s speed=0.0147x elapsed=0:04:43.11    \nframe=  251 fps=0.9 q=51.0 size=     768KiB time=00:00:04.15 bitrate=1516.1kbits/s speed=0.0146x elapsed=0:04:43.65    \nframe=  251 fps=0.9 q=51.0 size=     768KiB time=00:00:04.15 bitrate=1516.1kbits/s speed=0.0146x elapsed=0:04:44.20    \nframe=  252 fps=0.9 q=46.9 size=     768KiB time=00:00:04.16 bitrate=1510.0kbits/s speed=0.0146x elapsed=0:04:44.77    \nframe=  252 fps=0.9 q=46.9 size=     768KiB time=00:00:04.16 bitrate=1510.0kbits/s speed=0.0146x elapsed=0:04:45.31    \nframe=  252 fps=0.9 q=46.9 size=     768KiB time=00:00:04.16 bitrate=1510.0kbits/s speed=0.0146x elapsed=0:04:45.86    \nframe=  252 fps=0.9 q=46.9 size=     768KiB time=00:00:04.16 bitrate=1510.0kbits/s speed=0.0145x elapsed=0:04:46.40    \nframe=  252 fps=0.9 q=46.9 size=     768KiB time=00:00:04.16 bitrate=1510.0kbits/s speed=0.0145x elapsed=0:04:46.94    \nframe=  252 fps=0.9 q=46.9 size=     768KiB time=00:00:04.16 bitrate=1510.0kbits/s speed=0.0145x elapsed=0:04:47.49    \nframe=  253 fps=0.9 q=51.0 size=     768KiB time=00:00:04.18 bitrate=1504.0kbits/s speed=0.0145x elapsed=0:04:48.06    \nframe=  253 fps=0.9 q=51.0 size=     768KiB time=00:00:04.18 bitrate=1504.0kbits/s speed=0.0145x elapsed=0:04:48.63    \nframe=  253 fps=0.9 q=51.0 size=     768KiB time=00:00:04.18 bitrate=1504.0kbits/s speed=0.0145x elapsed=0:04:49.15    \nframe=  254 fps=0.9 q=51.0 size=     768KiB time=00:00:04.20 bitrate=1498.0kbits/s speed=0.0145x elapsed=0:04:49.70    \nframe=  255 fps=0.9 q=51.0 size=     768KiB time=00:00:04.21 bitrate=1492.1kbits/s speed=0.0145x elapsed=0:04:50.29    \nframe=  255 fps=0.9 q=51.0 size=     768KiB time=00:00:04.21 bitrate=1492.1kbits/s speed=0.0145x elapsed=0:04:50.84    \nframe=  255 fps=0.9 q=51.0 size=     768KiB time=00:00:04.21 bitrate=1492.1kbits/s speed=0.0145x elapsed=0:04:51.37    \nframe=  256 fps=0.9 q=51.0 size=     768KiB time=00:00:04.23 bitrate=1486.3kbits/s speed=0.0145x elapsed=0:04:51.93    \nframe=  256 fps=0.9 q=51.0 size=     768KiB time=00:00:04.23 bitrate=1486.3kbits/s speed=0.0145x elapsed=0:04:52.47    \nframe=  256 fps=0.9 q=51.0 size=     768KiB time=00:00:04.23 bitrate=1486.3kbits/s speed=0.0144x elapsed=0:04:53.01    \nframe=  256 fps=0.9 q=51.0 size=     768KiB time=00:00:04.23 bitrate=1486.3kbits/s speed=0.0144x elapsed=0:04:53.53    \nframe=  257 fps=0.9 q=49.5 size=     768KiB time=00:00:04.25 bitrate=1480.4kbits/s speed=0.0145x elapsed=0:04:54.05    \nframe=  257 fps=0.9 q=49.5 size=     768KiB time=00:00:04.25 bitrate=1480.4kbits/s speed=0.0144x elapsed=0:04:54.57    \nframe=  257 fps=0.9 q=49.5 size=     768KiB time=00:00:04.25 bitrate=1480.4kbits/s speed=0.0144x elapsed=0:04:55.10    \nframe=  257 fps=0.9 q=49.5 size=     768KiB time=00:00:04.25 bitrate=1480.4kbits/s speed=0.0144x elapsed=0:04:55.67    \nframe=  258 fps=0.9 q=51.0 size=     768KiB time=00:00:04.26 bitrate=1474.6kbits/s speed=0.0144x elapsed=0:04:56.22    \nframe=  258 fps=0.9 q=51.0 size=     768KiB time=00:00:04.26 bitrate=1474.6kbits/s speed=0.0144x elapsed=0:04:56.77    \nframe=  258 fps=0.9 q=51.0 size=     768KiB time=00:00:04.26 bitrate=1474.6kbits/s speed=0.0143x elapsed=0:04:57.34    \nframe=  258 fps=0.9 q=51.0 size=     768KiB time=00:00:04.26 bitrate=1474.6kbits/s speed=0.0143x elapsed=0:04:57.92    \nframe=  259 fps=0.9 q=51.0 size=     768KiB time=00:00:04.28 bitrate=1468.9kbits/s speed=0.0144x elapsed=0:04:58.44    \nframe=  260 fps=0.9 q=51.0 size=     768KiB time=00:00:04.30 bitrate=1463.2kbits/s speed=0.0144x elapsed=0:04:58.99    \nframe=  260 fps=0.9 q=51.0 size=     768KiB time=00:00:04.30 bitrate=1463.2kbits/s speed=0.0144x elapsed=0:04:59.58    \nframe=  260 fps=0.9 q=51.0 size=     768KiB time=00:00:04.30 bitrate=1463.2kbits/s speed=0.0143x elapsed=0:05:00.20    \nframe=  260 fps=0.9 q=51.0 size=     768KiB time=00:00:04.30 bitrate=1463.2kbits/s speed=0.0143x elapsed=0:05:00.74    \nframe=  260 fps=0.9 q=51.0 size=     768KiB time=00:00:04.30 bitrate=1463.2kbits/s speed=0.0143x elapsed=0:05:01.36    \nframe=  260 fps=0.9 q=51.0 size=     768KiB time=00:00:04.30 bitrate=1463.2kbits/s speed=0.0142x elapsed=0:05:02.06    \nframe=  260 fps=0.9 q=51.0 size=     768KiB time=00:00:04.30 bitrate=1463.2kbits/s speed=0.0142x elapsed=0:05:02.71    \nframe=  260 fps=0.9 q=51.0 size=     768KiB time=00:00:04.30 bitrate=1463.2kbits/s speed=0.0142x elapsed=0:05:03.29    \nframe=  260 fps=0.9 q=51.0 size=     768KiB time=00:00:04.30 bitrate=1463.2kbits/s speed=0.0142x elapsed=0:05:03.88    \nframe=  260 fps=0.9 q=51.0 size=     768KiB time=00:00:04.30 bitrate=1463.2kbits/s speed=0.0141x elapsed=0:05:04.46    \nframe=  260 fps=0.9 q=51.0 size=     768KiB time=00:00:04.30 bitrate=1463.2kbits/s speed=0.0141x elapsed=0:05:05.10    \nframe=  260 fps=0.9 q=51.0 size=     768KiB time=00:00:04.30 bitrate=1463.2kbits/s speed=0.0141x elapsed=0:05:05.75    \nframe=  260 fps=0.8 q=51.0 size=     768KiB time=00:00:04.30 bitrate=1463.2kbits/s speed=0.014x elapsed=0:05:06.37    \nframe=  260 fps=0.8 q=51.0 size=     768KiB time=00:00:04.30 bitrate=1463.2kbits/s speed=0.014x elapsed=0:05:07.00    \nframe=  260 fps=0.8 q=51.0 size=     768KiB time=00:00:04.30 bitrate=1463.2kbits/s speed=0.014x elapsed=0:05:07.53    \nframe=  261 fps=0.8 q=51.0 size=     768KiB time=00:00:04.31 bitrate=1457.6kbits/s speed=0.014x elapsed=0:05:08.04    \nframe=  261 fps=0.8 q=51.0 size=     768KiB time=00:00:04.31 bitrate=1457.6kbits/s speed=0.014x elapsed=0:05:08.61    \nframe=  261 fps=0.8 q=51.0 size=     768KiB time=00:00:04.31 bitrate=1457.6kbits/s speed=0.014x elapsed=0:05:09.19    \nframe=  262 fps=0.8 q=50.6 size=     768KiB time=00:00:04.33 bitrate=1452.0kbits/s speed=0.014x elapsed=0:05:09.72    \nframe=  263 fps=0.8 q=51.0 size=     768KiB time=00:00:04.35 bitrate=1446.4kbits/s speed=0.014x elapsed=0:05:10.30    \nframe=  263 fps=0.8 q=51.0 size=     768KiB time=00:00:04.35 bitrate=1446.4kbits/s speed=0.014x elapsed=0:05:10.81    \nframe=  263 fps=0.8 q=51.0 size=     768KiB time=00:00:04.35 bitrate=1446.4kbits/s speed=0.014x elapsed=0:05:11.34    \nframe=  263 fps=0.8 q=51.0 size=     768KiB time=00:00:04.35 bitrate=1446.4kbits/s speed=0.0139x elapsed=0:05:11.87    \nframe=  263 fps=0.8 q=51.0 size=     768KiB time=00:00:04.35 bitrate=1446.4kbits/s speed=0.0139x elapsed=0:05:12.40    \nframe=  264 fps=0.8 q=51.0 size=     768KiB time=00:00:04.36 bitrate=1440.9kbits/s speed=0.014x elapsed=0:05:12.91    \nframe=  266 fps=0.8 q=51.0 size=     768KiB time=00:00:04.38 bitrate=1435.4kbits/s speed=0.014x elapsed=0:05:13.44    \nframe=  266 fps=0.8 q=51.0 size=     768KiB time=00:00:04.40 bitrate=1430.0kbits/s speed=0.014x elapsed=0:05:13.97    \nframe=  267 fps=0.8 q=50.9 size=     768KiB time=00:00:04.41 bitrate=1424.6kbits/s speed=0.014x elapsed=0:05:14.49    \nframe=  268 fps=0.9 q=51.0 size=     768KiB time=00:00:04.43 bitrate=1419.2kbits/s speed=0.0141x elapsed=0:05:15.03    \nframe=  269 fps=0.9 q=51.0 size=     768KiB time=00:00:04.45 bitrate=1413.9kbits/s speed=0.0141x elapsed=0:05:15.55    \nframe=  270 fps=0.9 q=51.0 size=     768KiB time=00:00:04.46 bitrate=1408.6kbits/s speed=0.0141x elapsed=0:05:16.09    \nframe=  271 fps=0.9 q=51.0 size=     768KiB time=00:00:04.48 bitrate=1403.4kbits/s speed=0.0142x elapsed=0:05:16.61    \nframe=  272 fps=0.9 q=51.0 size=     768KiB time=00:00:04.50 bitrate=1398.2kbits/s speed=0.0142x elapsed=0:05:17.13    \nframe=  273 fps=0.9 q=51.0 size=     768KiB time=00:00:04.51 bitrate=1393.0kbits/s speed=0.0142x elapsed=0:05:17.65    \nframe=  274 fps=0.9 q=51.0 size=     768KiB time=00:00:04.53 bitrate=1387.9kbits/s speed=0.0142x elapsed=0:05:18.16    \nframe=  276 fps=0.9 q=51.0 size=     768KiB time=00:00:04.56 bitrate=1377.8kbits/s speed=0.0143x elapsed=0:05:18.68    \nframe=  277 fps=0.9 q=51.0 size=     768KiB time=00:00:04.58 bitrate=1372.8kbits/s speed=0.0144x elapsed=0:05:19.21    \nframe=  278 fps=0.9 q=51.0 size=     768KiB time=00:00:04.60 bitrate=1367.8kbits/s speed=0.0144x elapsed=0:05:19.77    \nframe=  281 fps=0.9 q=51.0 size=     768KiB time=00:00:04.65 bitrate=1353.1kbits/s speed=0.0145x elapsed=0:05:20.30    \nframe=  283 fps=0.9 q=51.0 size=     768KiB time=00:00:04.68 bitrate=1343.4kbits/s speed=0.0146x elapsed=0:05:20.82    \nframe=  283 fps=0.9 q=51.0 size=     768KiB time=00:00:04.68 bitrate=1343.4kbits/s speed=0.0146x elapsed=0:05:21.35    \nframe=  286 fps=0.9 q=51.0 size=     768KiB time=00:00:04.73 bitrate=1329.3kbits/s speed=0.0147x elapsed=0:05:21.89    \nframe=  286 fps=0.9 q=51.0 size=     768KiB time=00:00:04.73 bitrate=1329.3kbits/s speed=0.0147x elapsed=0:05:22.42    \nframe=  288 fps=0.9 q=51.0 size=     768KiB time=00:00:04.76 bitrate=1320.0kbits/s speed=0.0148x elapsed=0:05:22.96    \nframe=  289 fps=0.9 q=51.0 size=     768KiB time=00:00:04.78 bitrate=1315.4kbits/s speed=0.0148x elapsed=0:05:23.52    \nframe=  290 fps=0.9 q=51.0 size=     768KiB time=00:00:04.80 bitrate=1310.8kbits/s speed=0.0148x elapsed=0:05:24.05    \nframe=  291 fps=0.9 q=51.0 size=     768KiB time=00:00:04.81 bitrate=1306.3kbits/s speed=0.0148x elapsed=0:05:24.57    \nframe=  292 fps=0.9 q=51.0 size=     768KiB time=00:00:04.83 bitrate=1301.8kbits/s speed=0.0149x elapsed=0:05:25.11    \nframe=  294 fps=0.9 q=51.0 size=     768KiB time=00:00:04.86 bitrate=1292.8kbits/s speed=0.0149x elapsed=0:05:25.64    \nframe=  294 fps=0.9 q=51.0 size=     768KiB time=00:00:04.86 bitrate=1292.8kbits/s speed=0.0149x elapsed=0:05:26.17    \nframe=  296 fps=0.9 q=51.0 size=     768KiB time=00:00:04.90 bitrate=1284.0kbits/s speed=0.015x elapsed=0:05:26.68    \nframe=  297 fps=0.9 q=51.0 size=     768KiB time=00:00:04.91 bitrate=1279.7kbits/s speed=0.015x elapsed=0:05:27.20    \nframe=  299 fps=0.9 q=51.0 size=     768KiB time=00:00:04.95 bitrate=1271.1kbits/s speed=0.0151x elapsed=0:05:27.72    \n[mp4 @ 0000020cfbb57ac0] Starting second pass: moving the moov atom to the beginning of the file\n[out#0/mp4 @ 0000020cfbacab40] video:1002KiB audio:0KiB subtitle:0KiB other streams:0KiB global headers:2KiB muxing overhead: 0.662727%\nframe=  300 fps=0.9 q=51.0 Lsize=    1009KiB time=00:00:04.96 bitrate=1664.2kbits/s speed=0.0151x elapsed=0:05:28.09    \nx265 [info]: frame I:      2, Avg QP:44.97  kb/s: 18779.04\nx265 [info]: frame P:     59, Avg QP:44.44  kb/s: 3298.48 \nx265 [info]: frame B:    239, Avg QP:49.22  kb/s: 1087.49 \nx265 [info]: Weighted P-Frames: Y:0.0% UV:0.0%\n\nencoded 300 frames in 327.07s (0.92 fps), 1640.26 kb/s, Avg QP:48.25\n",
  "seconds": 328.5031747817993,
  "probe_out": {}
}